<svg width="30" height="28" viewBox="0 0 30 28" fill="none" xmlns="http://www.w3.org/2000/svg">
<path d="M14.7 15.4H19.5C19.925 15.4 20.2815 15.2656 20.5695 14.9968C20.8575 14.728 21.001 14.3957 21 14C21 13.6033 20.856 13.2706 20.568 13.0018C20.28 12.733 19.924 12.5991 19.5 12.6H14.7L16.05 11.34C16.325 11.0833 16.4625 10.7567 16.4625 10.36C16.4625 9.96333 16.325 9.63667 16.05 9.38C15.775 9.12333 15.425 8.995 15 8.995C14.575 8.995 14.225 9.12333 13.95 9.38L10.05 13.02C9.75 13.3 9.6 13.6267 9.6 14C9.6 14.3733 9.75 14.7 10.05 14.98L13.95 18.62C14.225 18.8767 14.575 19.005 15 19.005C15.425 19.005 15.775 18.8767 16.05 18.62C16.325 18.3633 16.4625 18.0367 16.4625 17.64C16.4625 17.2433 16.325 16.9167 16.05 16.66L14.7 15.4ZM15 28C12.925 28 10.975 27.6323 9.15 26.8968C7.325 26.1613 5.7375 25.1641 4.3875 23.905C3.0375 22.645 1.969 21.1633 1.182 19.46C0.395 17.7567 0.001 15.9367 0 14C0 12.0633 0.394 10.2433 1.182 8.54C1.97 6.83667 3.0385 5.355 4.3875 4.095C5.7375 2.835 7.325 1.83773 9.15 1.1032C10.975 0.368667 12.925 0.000933333 15 0C17.075 0 19.025 0.367733 20.85 1.1032C22.675 1.83867 24.2625 2.83593 25.6125 4.095C26.9625 5.355 28.0315 6.83667 28.8195 8.54C29.6075 10.2433 30.001 12.0633 30 14C30 15.9367 29.606 17.7567 28.818 19.46C28.03 21.1633 26.9615 22.645 25.6125 23.905C24.2625 25.165 22.675 26.1627 20.85 26.8982C19.025 27.6337 17.075 28.0009 15 28Z" fill="#6B6262"/>
</svg>
