<svg width="181" height="25" viewBox="0 0 181 25" fill="none" xmlns="http://www.w3.org/2000/svg">
<path d="M9.0625 2.34375H9.34375C10.3646 2.34375 11.4896 2.70833 12.7188 3.4375C13.3854 4.04167 13.7917 4.34375 13.9375 4.34375H14.125C14.2917 4.23958 14.375 4.125 14.375 4V3.9375L14.2188 3.46875C14.2188 3.38542 14.2917 3.33333 14.4375 3.3125C14.5625 3.35417 14.6771 3.4375 14.7812 3.5625H14.8438V3.46875C14.8438 3.23958 14.6875 2.98958 14.375 2.71875C14.4583 2.65625 14.6771 2.625 15.0312 2.625C15.1146 2.625 15.4896 2.83333 16.1562 3.25C16.3021 3.25 16.375 3.32292 16.375 3.46875V6.40625C16.375 7.78125 16.2708 8.57292 16.0625 8.78125L16.0312 8.875L16.125 9V9.03125C16.125 9.34375 15.6667 9.5 14.75 9.5C14.5417 9.60417 14.4062 9.65625 14.3438 9.65625H14.2188C14.2188 9.32292 13.9792 8.72917 13.5 7.875C13.1458 6.5 12.8125 5.6875 12.5 5.4375C12.1667 5.04167 11.2292 4.71875 9.6875 4.46875L8.78125 4.375L7.5625 4.5L7.34375 4.28125C6.96875 4.32292 6.30208 4.77083 5.34375 5.625L5.28125 5.875V5.9375H5.40625C6.26042 5.22917 6.875 4.78125 7.25 4.59375V4.65625C6.75 5.19792 5.83333 5.89583 4.5 6.75C3.9375 7.16667 3.51042 7.73958 3.21875 8.46875C2.69792 9.65625 2.4375 10.8229 2.4375 11.9688C2.4375 13.9479 2.67708 15.3854 3.15625 16.2812C3.98958 18.5521 4.94792 20.1667 6.03125 21.125C7.42708 21.8958 8.75 22.2812 10 22.2812H10.5C11.125 22.2812 11.8021 22.0521 12.5312 21.5938C12.7812 21.1146 13.3333 20.5312 14.1875 19.8438C14.8958 19.2812 15.25 18.8229 15.25 18.4688V18.375L15.2188 17.5312C15.2188 17.4688 15.3438 17.3542 15.5938 17.1875C15.5938 17.1042 15.6458 17.0312 15.75 16.9688H15.8438L16.5938 17.0938H17.125C17.2917 17.0938 17.375 17.2396 17.375 17.5312C17.5833 18.4896 17.6875 19.2083 17.6875 19.6875C17.6875 20.75 17.5521 21.625 17.2812 22.3125V22.4062L17.3125 22.625L17.1562 22.875V22.9375C17.1562 22.9792 17.3333 23.0312 17.6875 23.0938V23.1562L15.625 24.1562H15.5625C15.2292 23.7188 14.9688 23.2083 14.7812 22.625L14.75 22.5938C14.4792 22.6979 14.0104 22.9583 13.3438 23.375C11.6979 24.0625 10.6875 24.4062 10.3125 24.4062L8.4375 23.8438L8.0625 23.7812H7.875L7.46875 23.9062C6.98958 23.9062 6.21875 23.6875 5.15625 23.25C4.30208 23.0417 3.57292 22.4688 2.96875 21.5312C1.51042 19.4271 0.78125 17.8021 0.78125 16.6562C0.59375 15.9062 0.5 15.3333 0.5 14.9375C0.520833 14.7292 0.65625 14.625 0.90625 14.625L0.96875 14.9062V15.0625H1.09375L1.21875 14.9688V14.8438C1.21875 14.5729 0.979167 14.3854 0.5 14.2812C0.4375 14.2812 0.395833 13.1458 0.375 10.875C0.375 10.375 0.65625 9.44792 1.21875 8.09375C1.26042 8.09375 1.3125 7.79167 1.375 7.1875C1.45833 7.16667 1.54167 6.92708 1.625 6.46875C2.25 5.76042 3.02083 5.10417 3.9375 4.5C4.33333 4.125 4.9375 3.76042 5.75 3.40625C7.3125 2.69792 8.41667 2.34375 9.0625 2.34375ZM8 3.03125V3.125H8.0625C8.33333 3.10417 8.46875 3.04167 8.46875 2.9375L8.375 2.90625H8.34375C8.13542 2.90625 8.02083 2.94792 8 3.03125ZM10.0625 2.90625H10.0312V3L10.5312 3.09375H10.5938L10.6562 3C10.6562 2.9375 10.4583 2.90625 10.0625 2.90625ZM5.3125 4.03125V4.09375H5.34375C5.69792 4.01042 6.10417 3.8125 6.5625 3.5V3.46875L6.5 3.4375H6.46875C6.01042 3.52083 5.625 3.71875 5.3125 4.03125ZM9.875 3.75C9.875 3.83333 10.3229 3.94792 11.2188 4.09375L11.375 4.21875H11.5938L11.6875 4.09375V4.03125C11.4792 4.03125 11.2604 3.92708 11.0312 3.71875C10.6354 3.55208 10.3542 3.46875 10.1875 3.46875C9.97917 3.46875 9.875 3.5625 9.875 3.75ZM13.5938 4.65625H13.5V4.71875C13.6667 4.96875 13.8229 5.09375 13.9688 5.09375H14L14.125 5V4.96875C13.9375 4.76042 13.7604 4.65625 13.5938 4.65625ZM5 5.3125H5.09375C5.17708 5.29167 5.23958 5.23958 5.28125 5.15625H5.21875C5.13542 5.15625 5.0625 5.20833 5 5.3125ZM4.65625 5.71875H4.78125L4.90625 5.625V5.5C4.73958 5.5 4.65625 5.57292 4.65625 5.71875ZM13.9688 5.625L13.9062 5.71875V5.78125L14 5.84375L14.125 5.71875L14 5.625H13.9688ZM2.5625 6.46875C2.8125 6.46875 2.98958 6.375 3.09375 6.1875V6.09375H2.96875C2.76042 6.09375 2.625 6.21875 2.5625 6.46875ZM15.0312 7.65625L14.9688 7.71875V7.8125L15.0625 7.84375L15.1562 7.75L15.125 7.65625H15.0312ZM14.5312 8.40625V8.46875C14.8854 8.36458 15.0625 8.26042 15.0625 8.15625C15.0208 8.07292 14.9688 8.01042 14.9062 7.96875H14.7812C14.6146 8.13542 14.5312 8.28125 14.5312 8.40625ZM14.6562 8.90625L14.5312 9.03125V9.1875H14.6562C14.7812 9.1875 14.8646 9.13542 14.9062 9.03125V9L14.8438 8.90625H14.6562ZM2.0625 10.2812V10.3438H2.15625L2.3125 10.2188V10H2.1875C2.10417 10.0625 2.0625 10.1562 2.0625 10.2812ZM1.09375 10.5938H1.03125L0.90625 11.0625V11.3438H0.96875C1.05208 11.3438 1.09375 11.2396 1.09375 11.0312V10.5938ZM0.96875 11.6562H0.84375V11.8125H0.96875L1.03125 11.75L0.96875 11.6562ZM1.8125 14.1562V14.7188C1.85417 15.2188 2.13542 15.8438 2.65625 16.5938L2.71875 16.6562H2.84375V16.5C2.44792 15.3125 2.16667 14.125 2 12.9375H1.96875C1.86458 12.9375 1.8125 13.3438 1.8125 14.1562ZM1.21875 13.125H1.1875L1.15625 13.3125V13.5938L1.25 13.7188L1.34375 13.625V13.4375C1.34375 13.25 1.30208 13.1458 1.21875 13.125ZM1.15625 15.4375H1.0625V15.5312L1.1875 15.625H1.21875V15.5312L1.15625 15.4375ZM1.875 16.6875L1.78125 16.75C1.78125 16.875 1.83333 16.9583 1.9375 17H1.96875L2.0625 16.9688V16.875L1.875 16.6875ZM1.84375 17.5312H1.8125V17.5938C1.89583 18.0521 2.01042 18.2812 2.15625 18.2812H2.1875C2.27083 18.2812 2.3125 18.2396 2.3125 18.1562L1.84375 17.5312ZM16 18.3438L15.9062 18.375V18.4375L16.0625 18.5938H16.125C16.3542 18.5521 16.4688 18.5 16.4688 18.4375V18.375L16.4375 18.3438H16ZM16.3438 19.0625V19.1875C16.4062 19.3125 16.4896 19.375 16.5938 19.375C16.6771 19.2917 16.7188 19.1667 16.7188 19V18.8438C16.7188 18.7812 16.6771 18.75 16.5938 18.75C16.4271 18.8125 16.3438 18.9167 16.3438 19.0625ZM16 19.1562L15.9062 19.2188V19.625L16.0312 19.75H16.0625L16.1562 19.6562V19.4375C16.1562 19.2917 16.1042 19.1979 16 19.1562ZM3.5 19.4688V19.5C3.83333 20.1458 4.11458 20.4688 4.34375 20.4688V20.3438C3.94792 19.8021 3.66667 19.5104 3.5 19.4688ZM2.46875 19.5625L2.40625 19.6562L2.46875 19.75H2.53125L2.625 19.6562L2.53125 19.5625H2.46875ZM15.0312 19.9062L14.9688 19.9688V20.0625H15.125L15.2188 19.9688V19.9062H15.0312ZM16.1562 19.9062H16.0312V20.0312H16.125L16.1562 19.9375V19.9062ZM2.78125 20.0625H2.75V20.0938C2.75 20.1562 2.8125 20.3021 2.9375 20.5312H3.09375V20.4688C3.09375 20.3229 2.98958 20.1875 2.78125 20.0625ZM14.75 20.4688V20.5312H14.7812L14.9688 20.4375V20.3438H14.9062C14.8021 20.3854 14.75 20.4271 14.75 20.4688ZM4.65625 20.625L4.5625 20.6875C4.5625 20.9583 4.76042 21.1354 5.15625 21.2188H5.21875L5.34375 21.125C5.17708 20.8958 4.94792 20.7292 4.65625 20.625ZM16.25 20.6875H16.2188V20.9062L16.3125 21H16.3438V20.75L16.25 20.6875ZM3.34375 20.8125H3.25C3.41667 21.2917 3.625 21.6042 3.875 21.75H4.0625V21.5312C3.91667 21.3021 3.67708 21.0625 3.34375 20.8125ZM5.6875 21.6875H5.5V21.7188C5.5 21.7812 5.78125 21.875 6.34375 22V21.9375C6.23958 21.7708 6.02083 21.6875 5.6875 21.6875ZM14.125 22.0938V22.1562C14.2708 22.1562 14.3854 22.0833 14.4688 21.9375V21.9062H14.4375C14.2708 21.9062 14.1667 21.9688 14.125 22.0938ZM16.1562 22.0938L16.125 22.1562L16.1562 22.3125L16.3125 22.2812V22.1562L16.2188 22.0938H16.1562ZM4.90625 22.5L4.84375 22.5938C4.86458 22.6771 5.3125 22.8542 6.1875 23.125C6.1875 23.2083 6.36458 23.25 6.71875 23.25L6.875 23.1875V23.1562C6.85417 23.0729 6.46875 22.8854 5.71875 22.5938C5.65625 22.5312 5.47917 22.5 5.1875 22.5H4.90625ZM6.40625 22.5L6.375 22.5312V22.5938C6.91667 22.9479 7.58333 23.125 8.375 23.125H8.59375L8.65625 23.0625C7.55208 22.6875 6.80208 22.5 6.40625 22.5ZM8.9375 22.8438C9.1875 23.1146 9.60417 23.25 10.1875 23.25C10.875 23.1875 11.2188 23.0833 11.2188 22.9375V22.875C11.2188 22.7708 10.9583 22.7188 10.4375 22.7188H9.96875C9.28125 22.7188 8.9375 22.7604 8.9375 22.8438ZM12.5938 22.8438L12.5312 22.9375H12.6562L12.7188 22.875L12.6875 22.8438H12.5938ZM16.2188 23.1875L15.75 23.25V23.375L15.9062 23.5H16.0625C16.5625 23.4167 16.8125 23.3333 16.8125 23.25V23.1875H16.2188ZM10.6562 23.7188L9.75 23.9688V24.0625L10.25 24.1562H10.4375C10.6458 24.1562 11.1667 23.9271 12 23.4688V23.375H11.9688C11.7812 23.375 11.3438 23.4896 10.6562 23.7188ZM33.6875 2.125C34.3542 2.29167 34.6875 2.63542 34.6875 3.15625L34.75 3.96875C34.75 4.09375 33.8958 4.26042 32.1875 4.46875L32.0938 4.59375V4.71875C32.0938 4.94792 32.3125 5.97917 32.75 7.8125V8.3125L32.6562 9.6875C33.1146 12.6875 33.3438 16.1458 33.3438 20.0625H33.4062C35.1979 20.0625 36.0938 20.2604 36.0938 20.6562C36.2812 21.7188 36.375 22.3854 36.375 22.6562C36.375 23.0521 35.6875 23.25 34.3125 23.25H33.7188L33.5625 23.2812L33.4062 23.25H33.0625C32 23.25 31.4688 23.1562 31.4688 22.9688C31.2812 21.9688 31.1875 21.2396 31.1875 20.7812V20.3125L31.3125 19.625V19.5625C31.1875 19.0625 31.125 18.7188 31.125 18.5312V18.3125C31.0208 16.2708 30.9688 14.8542 30.9688 14.0625H30.9062L24.4375 13.9062L24.3125 14.0625L24.3438 15.3125L24.3125 18.8438V19.9062C24.3125 20.4271 24.375 20.9583 24.5 21.5L24.3125 22.0938C24.4375 22.3438 24.5 22.5312 24.5 22.6562C24.5 23.2604 24.0938 23.5625 23.2812 23.5625C21.8854 23.5625 21 23.4375 20.625 23.1875C19.8542 22.9792 19.4688 22.6667 19.4688 22.25L19.7188 20.9062C19.8021 20.8438 19.9479 20.8125 20.1562 20.8125H20.9688C21.4688 20.8125 21.7188 20.75 21.7188 20.625L21.75 20.3125V18.7812C21.75 15.3854 21.6771 12.8021 21.5312 11.0312L21.5625 9.65625C21.4792 9.65625 21.375 8.11458 21.25 5.03125L21 4.9375H20.9688C19.3021 4.9375 18.4688 4.84375 18.4688 4.65625L18.1562 3.9375C18.1562 3.4375 18.9896 3.1875 20.6562 3.1875C21.6146 3.125 22.5 3.09375 23.3125 3.09375L23.7188 3.1875L23.5625 3.59375L23.6562 3.8125C23.5104 3.95833 23.4375 4.10417 23.4375 4.25V4.4375L23.9688 10.8438C23.9688 11.1979 24.0521 11.375 24.2188 11.375L30.75 11.5938L30.8125 11.4688L30.6875 9.875C30.6875 9.75 30.75 9.58333 30.875 9.375L30.75 9.21875V9.15625L30.8125 9.03125V8.96875L30.6875 8.09375V7.09375C30.5208 5.92708 30.3958 5.28125 30.3125 5.15625C30.125 5.15625 29.9062 4.52083 29.6562 3.25C29.7188 2.75 29.7708 2.5 29.8125 2.5C31.4375 2.39583 32.7292 2.27083 33.6875 2.125ZM30.4375 2.90625L30.375 2.96875V3.03125C30.3958 3.11458 30.4688 3.15625 30.5938 3.15625H30.75C30.9375 3.15625 31.0417 3.11458 31.0625 3.03125C31.0417 2.94792 30.9583 2.90625 30.8125 2.90625H30.4375ZM30.75 3.5L30.6875 3.59375V3.65625L30.75 3.71875L30.875 3.65625V3.5H30.75ZM18.9375 3.9375L18.875 3.8125L18.8125 3.875V3.9375H18.9375ZM22.875 5.53125H22.8125V5.625L22.875 5.71875H23V5.625L22.875 5.53125ZM22.0938 5.75H21.9375L21.9062 6.125L21.9375 6.28125H22.0938V6V5.96875V5.75ZM32.1875 8.21875L32.0938 8.28125V8.375L32.1875 8.4375L32.2812 8.375V8.28125L32.1875 8.21875ZM32.1562 8.96875L32.1875 9.09375H32.2812L32.3125 9V8.71875L32.2812 8.65625C32.1979 8.65625 32.1562 8.76042 32.1562 8.96875ZM22.1562 11.5625H22.0938V11.6875C22.0938 11.8333 22.1354 11.9167 22.2188 11.9375H22.25L22.3438 11.875C22.3438 11.7292 22.2812 11.625 22.1562 11.5625ZM24.1875 12H24.125V12.0625L24.2188 12.1562H24.3125V12.125L24.1875 12ZM28.6875 12H27.6562V12.0625L28.5 12.1562H28.6875L28.75 12.0625L28.6875 12ZM22.2188 12.1875L22.1562 12.25V12.3125H22.2188L22.3125 12.2188V12.1875H22.2188ZM29.0312 13.0938L29.0625 13.125H29.5L29.625 13.0312L29.5938 12.9688H29.3438C29.1562 12.9688 29.0521 13.0104 29.0312 13.0938ZM31.1875 15L31.125 15.0938V15.1875L31.2188 15.2812H31.2812V15.0938L31.1875 15ZM31.1875 15.4688L31.125 15.5312V15.875H31.1875L31.2812 15.8125V15.5312L31.1875 15.4688ZM32.1562 19.3438L32 19.2188V19.4375L32.0625 19.5L32.1562 19.4375V19.3438ZM23.7188 19.3125H23.5938V19.3438C23.6146 19.4896 23.6562 19.5625 23.7188 19.5625H23.8125L23.7188 19.3125ZM21.4688 21.6875H21.3438V21.75H21.4688V21.6875ZM23.9062 22.1875L23.7812 22.3438V22.375L23.875 22.5H23.9062L24.0938 22.3438V22.2812L24 22.1875H23.9062ZM35.6562 22.5625L35.5938 22.5938V22.7188H35.7812V22.5938L35.6875 22.5625H35.6562ZM34.75 22.5938L34.625 22.7188L34.6875 22.8438H34.8438C34.9896 22.8438 35.0729 22.8021 35.0938 22.7188L35.0312 22.5938H34.75ZM46.25 2.21875C47.4792 2.38542 48.0938 2.61458 48.0938 2.90625L49.5938 7.375L50.5938 10.9375C51.0521 13.0625 51.6458 15.3542 52.375 17.8125C52.4167 17.7917 52.4583 17.7812 52.5 17.7812V18.0938H52.4688C52.4896 18.1562 52.5104 18.2292 52.5312 18.3125C52.5729 18.3958 52.5938 18.4583 52.5938 18.5L53.1875 19.7812L53.3438 20.5625L53.2812 20.9062C53.5104 21.0729 53.7708 21.1667 54.0625 21.1875H54.6875H54.7188C54.9479 21.2292 55.0833 21.2812 55.125 21.3438L54.9375 21.7188L54.9688 22.25C54.9688 22.4792 54.8646 22.6979 54.6562 22.9062H54.5312C54.3646 22.7396 54.2292 22.6562 54.125 22.6562H54.0625C53.8542 22.6562 53.7396 22.7188 53.7188 22.8438C53.7188 22.9062 53.9062 22.9479 54.2812 22.9688V23.0625C54.2812 23.1458 54.1562 23.1979 53.9062 23.2188L53.5 23.0938H53.1875L51.25 23.2812C50.8125 23.2812 50.2708 23.0208 49.625 22.5L49.875 22.25V22.125L49.5625 21.4688C49.5625 21.2188 49.9479 21.0938 50.7188 21.0938L50.75 21.0312V20.9062C50.75 19.9688 50.3229 18.9167 49.4688 17.75H49.4375C47.2708 17.9167 44.7396 18.1354 41.8438 18.4062H41.1562C41.0729 18.4896 40.7917 19.3229 40.3125 20.9062C40.3958 20.9896 40.5104 21.0312 40.6562 21.0312H41.2812C42.0104 21.0312 42.6354 21.3229 43.1562 21.9062V21.9375C43.1562 22.0833 42.8854 22.3646 42.3438 22.7812C42.3438 23.0104 40.7604 23.125 37.5938 23.125C37.0729 23.1042 36.8125 23.0417 36.8125 22.9375L36.9375 22.5312V22.5C36.9375 22.4167 36.8542 22.2292 36.6875 21.9375C36.6875 21.8125 36.875 21.6562 37.25 21.4688L37.2812 21.375V20.9062C37.2812 20.7188 37.3854 20.625 37.5938 20.625L37.7188 20.75L37.5938 21.125L37.625 21.1562H37.6562C37.9062 20.8021 38.0312 20.5521 38.0312 20.4062V20.2812C38.0312 20.1562 38 20.0938 37.9375 20.0938C38.1458 19.7188 38.3125 19.2188 38.4375 18.5938L40.0625 14.0938L40.6562 12.625C40.6562 12.4375 40.8438 12.125 41.2188 11.6875V11.625L41.125 11.3125C41.3542 11.1458 41.4688 11.0104 41.4688 10.9062L41.375 10.8125C41.375 10.6042 41.5 10.3854 41.75 10.1562L41.7188 9.9375L43.1562 5.71875C43.5104 5.09375 43.8333 4.34375 44.125 3.46875C44.1875 3.46875 44.3438 3.27083 44.5938 2.875C45.4479 2.45833 46 2.23958 46.25 2.21875ZM41.75 16.125V16.2812L41.8438 16.3438C44.5729 15.9062 46.7188 15.6875 48.2812 15.6875H49.5625L49.6562 15.5625V15.5312C49.5521 14.7812 49.3646 14.4062 49.0938 14.4062L47.125 8.46875C46.8958 7.61458 46.6667 6.92708 46.4375 6.40625C46.3333 6.15625 46.2083 5.97917 46.0625 5.875C46.0625 6.08333 46.0521 6.30208 46.0312 6.53125C44.5729 9.44792 43.5208 11.4271 42.875 12.4688C42.5417 13.1146 42.1667 14.3333 41.75 16.125ZM53.625 22.125V22.1875H53.6562C54.0729 22.1875 54.2812 22.125 54.2812 22L54.125 21.875C53.9583 21.875 53.7917 21.9583 53.625 22.125ZM45.9375 5.28125H45.9688C46.1562 5.28125 46.25 5.19792 46.25 5.03125V4.90625H46.1562C46.0104 4.98958 45.9375 5.11458 45.9375 5.28125ZM46.875 2.6875H46.7188V2.84375L46.8125 2.9375H47.0625L47.125 2.875V2.84375C47.0833 2.73958 47 2.6875 46.875 2.6875ZM47.25 16.1875L47.1875 16.3125L47.25 16.375H47.4062C47.5938 16.375 47.6979 16.3333 47.7188 16.25V16.1875H47.25ZM52.1562 18.8125H51.25V18.9375L52.1562 18.875V18.8125ZM40.0938 18.6562H40.0312L40 18.8438L40.0312 19H40.0938L40.1875 18.9062V18.6875L40.0938 18.6562ZM51 23.0938V23.1562H51.125C51.25 23.1562 51.3229 23.1146 51.3438 23.0312L51.2812 22.9375C51.1354 22.9375 51.0417 22.9896 51 23.0938ZM38.875 18.875L38.6562 19.0625V19.1562C38.8229 19.1562 38.9167 19.0833 38.9375 18.9375L38.875 18.875ZM49.1875 15.1562L49.3125 15L49.3438 15.0312V15.2812L49.25 15.375L49.1875 15.1562ZM42.375 11.375L42.2812 10.75L42.25 10.9375V11.0312H42.2812C42.3438 11.3854 42.375 11.5208 42.375 11.4375V11.375ZM52.7188 20.5938H52.6875V20.8125L52.7812 20.9062H52.8125V20.6875L52.7188 20.5938ZM38.6562 20.9062L38.5312 20.9375V21.0312L38.625 21.125H38.6562L38.7188 21.0312L38.6562 20.9062ZM46.0625 3.75H46.0312V3.8125L46.0938 3.90625H46.1562V3.8125L46.0625 3.75ZM44.9062 16.8125H44.8125V16.9062H44.9062V16.8125ZM42.0625 11.7188H42.0312V11.8125H42.0625V11.7188ZM57.375 1.78125H57.75C58.7917 1.78125 60.7083 1.91667 63.5 2.1875L66.9688 2.28125H67.0625C68.6458 2.28125 69.8021 2.20833 70.5312 2.0625C70.7812 3 70.9062 4.125 70.9062 5.4375V5.59375C70.9062 6.15625 70.7812 6.4375 70.5312 6.4375L70.4062 6.5625C70.4062 6.64583 70.5312 6.73958 70.7812 6.84375H70.8438V6.96875C70.7188 7.15625 70.3542 7.27083 69.75 7.3125C69.25 7.3125 69 7.14583 69 6.8125L68.9688 6.0625L69 4.625C69 4.4375 68.3854 4.34375 67.1562 4.34375H65.2812L64.2188 4.3125C64.0312 4.3125 63.8854 6.02083 63.7812 9.4375C63.6562 12.25 63.5938 14.1562 63.5938 15.1562V16.0938C63.5938 16.3646 63.5 16.6458 63.3125 16.9375V16.9688C63.4792 16.9688 63.5729 17.1875 63.5938 17.625L63.5 18.0938H63.4375V18.0625V17.875L63.375 20.3125C63.375 20.5625 64.4062 20.7812 66.4688 20.9688C66.8646 21.1146 67.0625 21.3125 67.0625 21.5625C66.8958 21.9375 66.8125 22.4062 66.8125 22.9688C66.75 22.9688 66.7188 23.0729 66.7188 23.2812L66.5938 23.4062C64.3646 23.2812 62.3125 23.2188 60.4375 23.2188H59.7188C58.7604 23.2188 58.0208 23.2604 57.5 23.3438C57.4583 23.2604 57.375 22.5729 57.25 21.2812H57.2812L57.7188 21.4688H57.75L57.875 21.375V21.3438C57.8333 21.2396 57.7292 21.1875 57.5625 21.1875L57.4688 21.0938V21.0312C57.4688 20.9688 57.9271 20.8542 58.8438 20.6875C58.8438 20.625 59.5729 20.5833 61.0312 20.5625C61.1979 20.5625 61.3125 19.8854 61.375 18.5312L61.5312 16.5312C61.3438 14.8021 61.25 13.7292 61.25 13.3125L60.9062 7.125V6.3125L60.9688 5.15625L60.9062 4.75L61.0312 4.5V4.34375C61.0312 4.15625 60.2083 4.05208 58.5625 4.03125C57.375 4.09375 56.7812 4.17708 56.7812 4.28125C56.5938 4.76042 56.4062 5.47917 56.2188 6.4375L56 6.625L55.9375 6.59375H55.7188C55.6354 6.67708 55.5417 6.71875 55.4375 6.71875L54.5625 6.78125C54.5625 6.38542 54.5625 5.97917 54.5625 5.5625C54.5833 5.125 54.5938 4.79167 54.5938 4.5625C54.6146 4.33333 54.625 4.16667 54.625 4.0625L54.4688 2.875C54.4688 2.625 54.625 2.47917 54.9375 2.4375L55.3125 2.0625H55.4688L55.75 2.4375H55.8125C56.1667 2 56.6875 1.78125 57.375 1.78125ZM64.375 2.96875L64.2812 3.0625C64.2812 3.16667 64.6146 3.23958 65.2812 3.28125C65.6354 3.23958 65.8125 3.19792 65.8125 3.15625V3.09375C65.5625 3.01042 65.1146 2.96875 64.4688 2.96875H64.375ZM68.4688 3.84375H68.1562V3.875C68.1979 3.97917 68.2812 4.03125 68.4062 4.03125H68.5938V3.96875L68.4688 3.84375ZM69.25 3.84375H69.0938V3.96875H69.1875L69.25 3.875V3.84375ZM62.5 4.625V4.65625L62.5938 4.75C62.8021 4.75 63.0104 4.61458 63.2188 4.34375V4.28125L63.0625 4.25C62.875 4.25 62.6875 4.375 62.5 4.625ZM55.875 4.34375L55.7188 4.5V4.75L55.8125 4.875H55.875L56.0312 4.71875V4.5L55.9062 4.34375H55.875ZM61.5312 4.59375V4.75C61.5938 5.0625 61.6562 5.21875 61.7188 5.21875C61.8229 5.21875 61.9062 5.10417 61.9688 4.875V4.65625C61.9688 4.53125 61.8958 4.42708 61.75 4.34375C61.6042 4.34375 61.5312 4.42708 61.5312 4.59375ZM69.75 4.5H69.6875L69.5938 4.90625L69.75 4.96875L69.8438 4.875V4.625L69.75 4.5ZM62.8125 5.625H62.7812L62.7188 6V6.5H62.7812L62.8125 6.0625V5.625ZM69.5625 6.5L69.5 6.5625V6.71875H69.5625L69.6875 6.59375V6.5625L69.5938 6.5H69.5625ZM63.0938 8.4375H63.0312L62.9688 9.5625V10.3125C62.9688 10.8333 63.0208 11.0938 63.125 11.0938H63.1875L63.2812 10.6875L63.0938 8.4375ZM61.75 9.375L61.6875 9.46875L61.7188 9.53125H61.75V9.375ZM62.0938 11.7188H62C61.875 12.2396 61.8125 12.8021 61.8125 13.4062V13.7812C61.8125 14.7812 61.9062 15.2812 62.0938 15.2812C62.1562 15.2812 62.1979 15.1146 62.2188 14.7812L62.0312 13.3125L62.1875 12.625L62.0938 11.7188ZM62.3438 16.0938H62.2188V16.625L62.5 17.0938V16.9375C62.5 16.375 62.4479 16.0938 62.3438 16.0938ZM59.4062 21.0312L59.25 21.1875V21.3438C59.25 21.3854 59.2917 21.4062 59.375 21.4062L60.0312 21.3438V21.25C59.9479 21.1042 59.7917 21.0312 59.5625 21.0312H59.4062ZM58.6562 21.1562H58.5625L58.5 21.25L58.5938 21.3438H58.7188L58.7812 21.25L58.6562 21.1562ZM65.2812 21.5938C65.5938 21.6771 65.9583 21.7188 66.375 21.7188L66.4375 21.6562V21.5625L66.125 21.4688H65.5C65.3542 21.4896 65.2812 21.5312 65.2812 21.5938ZM64.6875 22L64.5625 22.125C64.625 22.2708 64.7292 22.3438 64.875 22.3438H65.0625C65.1875 22.3438 65.2708 22.3125 65.3125 22.25V22.1875C65.3125 22.1042 65.1667 22.0417 64.875 22H64.6875ZM61.6875 22.0625L61.4062 22.125V22.25L61.6875 22.2812H62.125C62.25 22.2812 62.3229 22.2396 62.3438 22.1562C62.2396 22.0938 62.0833 22.0625 61.875 22.0625H61.6875ZM59.5 22.1875L59.3438 22.25V22.3438L59.8438 22.4375L60.25 22.3438V22.3125L60.125 22.1875H59.5ZM58.0938 22.7812V22.8438L58.1875 22.9062H58.25C58.3958 22.8229 58.4688 22.6771 58.4688 22.4688V22.4375L58.375 22.3438H58.3438C58.1771 22.4479 58.0938 22.5938 58.0938 22.7812ZM66.3438 22.4375L66.2188 22.5625V22.6562L66.3438 22.7188L66.4375 22.5938V22.5L66.3438 22.4375ZM71.5 1.75L73.9062 1.375H74C74.375 1.375 75.1562 1.5 76.3438 1.75C77.9062 1.75 79.9688 2.17708 82.5312 3.03125C83.6354 3.88542 84.4792 4.90625 85.0625 6.09375C85.2708 6.73958 85.375 7.38542 85.375 8.03125V8.09375C85.375 9.03125 84.9896 10.0729 84.2188 11.2188C83.7812 11.7812 83.1146 12.3021 82.2188 12.7812C81.9896 13.0104 81.4896 13.3438 80.7188 13.7812C80.3854 14.0521 80.2188 14.2396 80.2188 14.3438C82.0104 16.9479 83.2083 18.6354 83.8125 19.4062C84.3958 20.4062 84.9375 20.9062 85.4375 20.9062C87.0208 20.9896 87.8125 21.2188 87.8125 21.5938L88.0625 23.0625C88.0208 23.1667 87.9375 23.2188 87.8125 23.2188H87.5625L85.8438 23.625C85.6771 23.3958 85.0208 23.2812 83.875 23.2812C82.75 23.2812 82.1875 23.2188 82.1875 23.0938C82.1667 22.7812 82.0729 22.3542 81.9062 21.8125L81.875 21.5938V21.4688C81.875 21.2812 81.5833 20.8021 81 20.0312C80.8958 19.5729 80.7812 19.3021 80.6562 19.2188C80.1771 18.5521 79.4688 17.2083 78.5312 15.1875C78.3021 14.9583 78.1146 14.8438 77.9688 14.8438L76.0312 15.2812C75.1354 15.2812 74.6875 15.5521 74.6875 16.0938V16.625C74.6875 19.2708 74.8854 20.5938 75.2812 20.5938L75.6875 20.625H76.0312L76.7812 20.4688C76.9062 20.7396 76.9688 21.1875 76.9688 21.8125L76.8438 22.125L76.875 22.6875C76.875 22.875 76.1458 23.0729 74.6875 23.2812L74.5938 23.2188L72.1562 23.1562H70.4062C70.1979 23.1562 70.0938 22.8958 70.0938 22.375V21.8438C70.0938 21.0521 70.2812 20.6562 70.6562 20.6562L72.0625 20.3438L72.125 19.875C71.9792 15.3333 71.8229 12.3542 71.6562 10.9375C71.6354 6.375 71.5729 4.09375 71.4688 4.09375L71.3438 4.03125L69.2188 4.4375L69.0938 4.40625L69.1562 4.125H68.7812V4.03125H68.7188L68.7812 3.65625V3.46875C68.7812 3.34375 68.6979 3.13542 68.5312 2.84375C68.8229 2.80208 68.9688 2.71875 68.9688 2.59375L68.7812 2.34375C68.7812 2.19792 69.6875 2 71.5 1.75ZM74.1875 1.96875L74.0938 2.0625L74.1875 2.15625H74.7188V2.0625L74.3125 1.96875H74.1875ZM74.8438 2.75C74.5104 2.77083 74.3438 2.82292 74.3438 2.90625C74.3438 2.98958 74.4271 3.03125 74.5938 3.03125H74.6562C75.2188 3.01042 75.5208 2.94792 75.5625 2.84375L75.4688 2.75H74.8438ZM76.9375 3.15625L77.0625 3.21875H77.375C77.5625 3.21875 77.6771 3.16667 77.7188 3.0625C77.7188 2.97917 77.5938 2.9375 77.3438 2.9375C77.1354 2.9375 77 3.01042 76.9375 3.15625ZM80.7812 3.15625L80.7188 3.1875V3.21875C80.8021 3.30208 80.9167 3.34375 81.0625 3.34375V3.3125C81.0625 3.27083 80.9688 3.21875 80.7812 3.15625ZM69.1562 3.625V3.75L69.25 3.78125C69.3958 3.78125 69.5208 3.69792 69.625 3.53125V3.375L69.5 3.25H69.3125C69.2292 3.25 69.1771 3.375 69.1562 3.625ZM81.7812 3.59375V3.625C82.1771 3.89583 82.6667 4.25 83.25 4.6875H83.3438V4.53125C83.3438 4.21875 82.8229 3.90625 81.7812 3.59375ZM74.4062 3.96875V4.21875L74.6562 6.21875C74.5312 8.38542 74.4271 9.55208 74.3438 9.71875L74.1875 9.9375V10.3125L74.4062 11.9062C74.4062 12.6562 74.5104 13.0312 74.7188 13.0312H74.7812C76.3646 12.8229 77.1562 12.6354 77.1562 12.4688C78.2188 12.0729 78.9688 11.75 79.4062 11.5C80.3229 11.5 81.4271 10.8542 82.7188 9.5625C83.0729 8.85417 83.25 8.19792 83.25 7.59375V7.25C83.25 7.04167 82.9583 6.48958 82.375 5.59375C81.3125 4.38542 80.3021 3.78125 79.3438 3.78125L78.2812 3.71875C76.6146 3.88542 75.3229 3.96875 74.4062 3.96875ZM72.25 4.03125L72.1562 4.125V4.8125L72.3125 6.53125H72.3438L72.5312 4.09375L72.4688 4.03125H72.25ZM82.2812 4.625L82.2188 4.71875L82.375 4.875H82.4688V4.8125L82.3438 4.625H82.2812ZM74.0312 5.71875L74 5.84375V5.96875C74.0208 6.11458 74.0521 6.1875 74.0938 6.1875L74.1875 6.09375V5.84375L74.0938 5.71875H74.0312ZM73.125 6.75L72.9062 8.84375L73 8.9375H73.125L73.2188 8.8125V7.15625C73.2188 6.88542 73.1875 6.75 73.125 6.75ZM84.125 7.40625L84.0312 7.46875V7.6875L84.125 7.75H84.1562L84.25 7.65625V7.53125L84.1562 7.40625H84.125ZM72.3438 8.21875H72.25V8.3125L72.3438 8.375H72.4062V8.3125L72.3438 8.21875ZM84.3438 9.15625H84.25V9.3125L84.0312 9.78125V9.90625L84.2188 10.125C84.3646 10.125 84.4479 9.90625 84.4688 9.46875C84.4479 9.26042 84.4062 9.15625 84.3438 9.15625ZM83.5938 10.7188C83.6146 10.8229 83.6875 10.9167 83.8125 11H83.875C84.1042 10.8125 84.2188 10.625 84.2188 10.4375L84.1562 10.4062C83.8646 10.4062 83.6771 10.5104 83.5938 10.7188ZM82.75 11.0312V11.125H82.875C83.0417 11.0625 83.125 10.9792 83.125 10.875H83.0312C82.8854 10.875 82.7917 10.9271 82.75 11.0312ZM80.7812 11.6875V11.7812H81.0625C81.1667 11.6562 81.3958 11.5104 81.75 11.3438L81.7812 11.3125V11.2188C81.4896 11.2188 81.1562 11.375 80.7812 11.6875ZM73.0312 11.3438L72.9375 11.4688V11.5L73.0312 11.5938L73.125 11.5V11.4688L73.0312 11.3438ZM79.3438 12.5V12.5938C79.9271 12.4688 80.3125 12.2708 80.5 12V11.9688H80.4375C79.8333 12.1562 79.4688 12.3333 79.3438 12.5ZM81.9062 11.9688L81.8125 12.0312V12.0938H81.9688V11.9688H81.9062ZM81.3125 12.4688L81.3438 12.5H81.375L81.5938 12.375V12.2812H81.5625C81.4167 12.3229 81.3333 12.3854 81.3125 12.4688ZM77.9375 13.0312V13.0625H78.1562C78.4479 13.0208 78.5938 12.9792 78.5938 12.9375L78.5312 12.875H78.4688C78.1146 12.9167 77.9375 12.9688 77.9375 13.0312ZM76.7812 13.2812V13.3125H76.875C77.2083 13.3125 77.375 13.2604 77.375 13.1562V13.0938H77.2812C77.1771 13.0938 77.0104 13.1562 76.7812 13.2812ZM78.8438 13.5625L78.9062 13.5938H78.9375C79.4583 13.4688 79.7188 13.3542 79.7188 13.25L79.6875 13.1875H79.6562C79.2188 13.2708 78.9479 13.3958 78.8438 13.5625ZM79.5 15.4375V15.4688C79.5 15.6354 79.5833 15.7812 79.75 15.9062H79.875V15.8438C79.7292 15.5729 79.6042 15.4375 79.5 15.4375ZM73.125 19.4062L73 19.5312V19.8438H73.125L73.1875 19.5312L73.1562 19.4062H73.125ZM73.8125 21.2188V21.25L73.9375 21.375H74C74.0833 21.375 74.1458 21.2292 74.1875 20.9375V20.8125L74.125 20.625H74.0312C73.9479 20.625 73.875 20.8229 73.8125 21.2188ZM73.2188 20.6875H73.1562L73.0938 21.2188V21.25H73.2188L73.3438 21.1562V21.0312C73.3438 20.8229 73.3021 20.7083 73.2188 20.6875ZM76.2812 21.4375L76.25 21.4688V21.5938H76.2812L76.375 21.4688V21.4375H76.2812ZM83.5938 21.5938L83.4688 21.75L83.5938 21.9062H83.625L83.75 21.75V21.5938H83.5938ZM86.625 21.75V21.9062L86.8125 21.9375H86.9688L87.0625 21.8438V21.75L86.9688 21.6562H86.8438C86.6979 21.6771 86.625 21.7083 86.625 21.75ZM76.0938 22.2812L76.1562 22.3125H76.2812L76.4062 22.2188V22.1562L76.3438 22.0625C76.1771 22.0625 76.0938 22.1354 76.0938 22.2812ZM84.25 22H83.9062V22.0312L84.0312 22.1562H84.5625V22.125C84.5417 22.0417 84.4375 22 84.25 22ZM86.6875 22.5938L86.7812 22.75H87.1875C87.375 22.75 87.4896 22.6979 87.5312 22.5938C87.5312 22.5104 87.4479 22.4688 87.2812 22.4688H86.9375C86.7708 22.5104 86.6875 22.5521 86.6875 22.5938ZM82.5312 22.5938L82.4688 22.6562C82.4688 22.7396 82.5208 22.7812 82.625 22.7812L82.7812 22.7188L82.75 22.5938H82.5312ZM96.6562 1.46875L98.625 1.28125C100.125 1.55208 101.042 1.78125 101.375 1.96875C102.875 2.90625 103.771 3.77083 104.062 4.5625L105.156 6.21875C105.427 7.38542 105.698 9.02083 105.969 11.125C105.802 13.75 105.552 15.2292 105.219 15.5625C104.99 16.4375 104.656 17.375 104.219 18.375C103.219 20.4375 102.521 21.6667 102.125 22.0625C101.292 22.7917 100.552 23.1562 99.9062 23.1562C99.6146 23.2188 99.4688 23.3125 99.4688 23.4375L98.0938 23.9688L97.9062 23.9375C97.0104 24.0625 96.3125 24.125 95.8125 24.125H95.4062C95.1979 24.125 94.4062 23.8646 93.0312 23.3438C92.6771 23.2188 92.2292 22.8542 91.6875 22.25C91.25 21.9375 91.0312 21.6354 91.0312 21.3438C90.4479 20.5312 89.8854 19.1979 89.3438 17.3438C89.1146 16.7188 89 16.3542 89 16.25L88.9688 15.75C88.9688 12.3333 89.4688 9.82292 90.4688 8.21875C90.8021 7.76042 91.0938 6.95833 91.3438 5.8125L92.4688 4.375C92.4688 3.83333 93.2917 3.05208 94.9375 2.03125C94.9375 1.92708 95.5104 1.73958 96.6562 1.46875ZM100.875 2.0625H100.75V2.25C101.375 2.625 101.75 2.8125 101.875 2.8125V2.75C101.417 2.29167 101.083 2.0625 100.875 2.0625ZM99.6875 2.34375L99.5938 2.4375V2.46875C100.302 2.96875 101.125 3.34375 102.062 3.59375V3.53125C101.917 3.34375 101.646 3.17708 101.25 3.03125C101.25 2.92708 100.938 2.77083 100.312 2.5625C100.188 2.41667 100.021 2.34375 99.8125 2.34375H99.6875ZM95.8438 3.21875V3.28125C95.9271 3.28125 96.4479 3.10417 97.4062 2.75L97.7812 2.625V2.46875C97.2604 2.46875 96.6146 2.71875 95.8438 3.21875ZM91.3125 13.1562V15.7812C91.3125 17.5938 91.7812 18.7604 92.7188 19.2812C93.6562 20.2188 94.25 20.6875 94.5 20.6875C95.125 20.6875 95.6354 20.8854 96.0312 21.2812L96.3125 21.3438L96.6562 21.2812L96.9375 21.5625H96.9688C97.0938 21.5625 97.25 21.4479 97.4375 21.2188C98.3958 21.0729 99.0521 20.8542 99.4062 20.5625C100.865 19.1042 101.594 18.2917 101.594 18.125C102.469 16.0417 102.906 14.7292 102.906 14.1875C103.406 12.2708 103.771 11.3125 104 11.3125H104.062V11.125C104.062 10.875 103.927 10.4792 103.656 9.9375C103.51 8.27083 103.312 7.25 103.062 6.875C102.625 5.6875 101.5 4.63542 99.6875 3.71875C99.0625 3.42708 98.6875 3.28125 98.5625 3.28125H98.3438C97.4062 3.69792 96.8958 3.90625 96.8125 3.90625C96.75 3.90625 96.7188 3.98958 96.7188 4.15625C95.5521 4.94792 94.8542 5.46875 94.625 5.71875L93.0938 7.6875C92.7188 8.16667 92.3958 8.76042 92.125 9.46875C91.5833 10.7188 91.3125 11.9479 91.3125 13.1562ZM92.4375 5.96875V6H92.5C94 4.6875 94.75 3.95833 94.75 3.8125H94.7188C94.2604 3.8125 93.7604 4.20833 93.2188 5C93.1146 5 92.9479 5.11458 92.7188 5.34375C92.5312 5.34375 92.4375 5.55208 92.4375 5.96875ZM102.438 3.90625L102.312 4.03125H102.562L102.438 3.90625ZM95.0625 4.53125V4.5625H95.1562C95.7396 4.41667 96.0312 4.23958 96.0312 4.03125L95.9688 3.96875H95.875C95.3333 4.09375 95.0625 4.28125 95.0625 4.53125ZM101.75 4.3125C101.75 4.5625 102.042 4.8125 102.625 5.0625H102.75C102.812 5.0625 102.844 5.01042 102.844 4.90625C102.844 4.73958 102.479 4.54167 101.75 4.3125ZM103.688 5.21875L103.594 5.34375V5.46875C103.594 5.63542 103.906 6.28125 104.531 7.40625L104.219 6.09375C104.219 5.51042 104.062 5.21875 103.75 5.21875H103.688ZM91.9375 6.125L91.875 6.21875V6.28125H92.0312V6.125H91.9375ZM91.8125 6.5H91.7188V6.59375L91.8125 6.53125V6.5ZM92.5 7.15625L92.25 7.40625V7.53125H92.375C92.5 7.53125 92.5625 7.41667 92.5625 7.1875V7.15625H92.5ZM104.812 8.25L104.625 8.09375L104.594 8.15625V8.1875L104.688 8.53125H104.812V8.25ZM91.4688 9.09375V9.28125L91.5938 9.375C91.5938 9.27083 91.7292 8.97917 92 8.5L92.0312 8.25H91.9375C91.7292 8.4375 91.5729 8.71875 91.4688 9.09375ZM104.062 12H103.906V12.125H103.969L104.062 12.0312V12ZM104.688 12.3125H104.625C104.542 12.625 104.5 12.9792 104.5 13.375V13.4062H104.531C104.656 13.3854 104.719 13.2812 104.719 13.0938V12.5L104.688 12.3125ZM105.188 14.25V14.375H105.312C105.438 13.9375 105.5 13.6042 105.5 13.375V13.2812H105.406C105.281 13.2812 105.208 13.6042 105.188 14.25ZM103.438 14.25V14.4375H103.594L103.688 14.1562L103.625 13.8438H103.594C103.49 13.8438 103.438 13.9792 103.438 14.25ZM102.656 17.3438H102.719C102.865 17.3438 103 17.0208 103.125 16.375C103.333 16.0208 103.438 15.5521 103.438 14.9688V14.875L103.406 14.7812C103.219 14.7812 103 15.5104 102.75 16.9688L102.719 17.0312L102.656 17.3438ZM90.3438 15.7812L90.25 15.8438V15.875L90.3438 15.9688H90.375L90.4688 15.875V15.8438L90.375 15.7812H90.3438ZM89.4375 16.25L89.3438 16.375V16.625L89.4062 16.6875H89.4688L89.5312 16.5V16.3438L89.4375 16.25ZM102 18.0938L102.062 18.3438C101.458 19.1354 101.156 19.5729 101.156 19.6562H101.375L101.406 19.5938H101.438L101.469 19.6562V19.6875L100.031 20.875L100 20.9688H100.031L100.062 21.0312H100.125C100.542 20.8854 101.031 20.5312 101.594 19.9688C102.115 19.3021 102.417 18.7083 102.5 18.1875V18.0938V17.875C102.5 17.7292 102.448 17.6354 102.344 17.5938H102.281C102.177 17.5938 102.083 17.7604 102 18.0938ZM90.5625 18.3125H90.5312V18.625C90.5312 18.875 90.6667 19.0938 90.9375 19.2812H91.0312V19.2188C91.0312 18.9271 90.875 18.625 90.5625 18.3125ZM101.25 22.0625V22.1875H101.281C102.094 21.6458 102.5 21.2396 102.5 20.9688H102.375C101.896 21.3438 101.521 21.7083 101.25 22.0625ZM97.6562 21.4062V21.4688H98L98.0938 21.3438V21.2812H98C97.7917 21.2812 97.6771 21.3229 97.6562 21.4062ZM94.625 21.375C94.625 21.5208 94.7708 21.6458 95.0625 21.75V21.7188C95.0625 21.5521 94.9167 21.4375 94.625 21.375ZM92.5625 21.8438H92.5V21.9688L92.5938 22.0312H92.6875V21.9688L92.5625 21.8438ZM98.0312 22.7188V22.8438H98.2188C98.8854 22.6771 99.2188 22.4583 99.2188 22.1875H99.1875C99.0208 22.1875 98.6354 22.3646 98.0312 22.7188ZM96.8125 22.2812L96.3438 22.3438V22.5H96.8125H97.5V22.4375C97.5 22.3542 97.3646 22.3021 97.0938 22.2812H96.8125ZM95.6562 22.3125L95.5625 22.375L95.875 22.5V22.4375C95.8542 22.3542 95.7812 22.3125 95.6562 22.3125ZM100.062 22.625L100 22.7188V22.8438H100.125L100.25 22.7188L100.125 22.625H100.062ZM92.7812 22.9062V22.9688C92.7812 23.0729 93.1354 23.2292 93.8438 23.4375C94.7188 23.7083 95.3125 23.8438 95.625 23.8438C96.125 23.8438 96.8854 23.7292 97.9062 23.5V23.4375H97.3125L95.1875 23.5312L93.8438 23.0625C93.4271 22.9583 93.0729 22.9062 92.7812 22.9062ZM108.719 0.34375L109.281 0.375C112.24 0.375 114.094 0.552083 114.844 0.90625C116.469 1.13542 117.948 1.42708 119.281 1.78125C119.573 1.94792 120.156 2.13542 121.031 2.34375C121.302 2.44792 121.542 2.69792 121.75 3.09375C122.5 3.71875 122.875 4.59375 122.875 5.71875L122.281 8.40625C122.052 8.98958 121.448 10.0208 120.469 11.5C120.469 11.9375 118.938 12.6458 115.875 13.625C115.75 13.7917 115.208 13.9167 114.25 14C113.917 14.1042 112.844 14.25 111.031 14.4375V18.0938L110.969 21.125C112.094 21.125 113.188 21.3542 114.25 21.8125V21.9062H114.281L114.25 21.9375V22.2812C114.25 22.3438 114.281 22.4271 114.344 22.5312L114.188 22.8438V23.1562C114.188 23.3854 114 23.5 113.625 23.5H112.312V23.5625C112.312 23.6667 112.552 23.7396 113.031 23.7812V23.9375L112.656 24C111.74 23.75 110.312 23.625 108.375 23.625C108.208 23.3958 108.104 23.2812 108.062 23.2812L107.219 23.5C107.219 23.5833 107.333 23.6458 107.562 23.6875V23.7188C107.562 23.7812 107.448 23.8333 107.219 23.875C107.01 23.875 106.906 23.2083 106.906 21.875L106.781 21.3125C106.781 21.1042 106.885 21 107.094 21L108.188 21.125H108.375C108.604 21.125 108.719 19.6146 108.719 16.5938L108.781 15.0938C108.656 15.0938 108.594 14.8958 108.594 14.5L108.531 13.5625V12.1562C108.531 11.8438 108.51 11.5208 108.469 11.1875L108.531 10.9688L108.406 10.8438V10.7188L108.594 10.5312V10.2812L108.469 10.125C108.573 8.70833 108.625 7.63542 108.625 6.90625V6.84375C108.521 6.69792 108.469 6.4375 108.469 6.0625V5.65625L108.656 3.8125V3.78125C108.198 3.73958 107.635 3.71875 106.969 3.71875C106.719 3.71875 106.552 3.375 106.469 2.6875V2.65625C106.469 2.53125 106.552 2.28125 106.719 1.90625L106.656 1.46875C106.656 1.26042 106.823 1.14583 107.156 1.125H107.25V1.09375L107.094 0.78125V0.71875C107.115 0.53125 107.656 0.40625 108.719 0.34375ZM109.781 0.78125L108.812 0.84375V0.90625C108.812 0.96875 109.469 1.03125 110.781 1.09375L111.688 1.03125C111.792 0.989583 111.844 0.958333 111.844 0.9375V0.84375L111.188 0.78125H109.781ZM112.312 0.9375L112.406 1H112.969L113.094 0.9375C113.094 0.854167 112.938 0.802083 112.625 0.78125C112.417 0.802083 112.312 0.854167 112.312 0.9375ZM116.969 1.5625L116.875 1.625H117.031L116.969 1.5625ZM116.875 2.1875L116.844 2.21875V2.25C116.969 2.3125 117.104 2.34375 117.25 2.34375H117.281V2.3125C117.281 2.22917 117.146 2.1875 116.875 2.1875ZM108.625 2.40625V2.46875L108.812 2.5H108.906C109.156 2.45833 109.281 2.40625 109.281 2.34375L109.219 2.25H108.969C108.781 2.25 108.667 2.30208 108.625 2.40625ZM110.156 2.3125H110.062V2.34375H110.156V2.3125ZM110.781 2.53125H110.625V2.59375C110.625 2.80208 110.781 2.90625 111.094 2.90625L111.938 2.8125V2.78125C111.938 2.63542 111.552 2.55208 110.781 2.53125ZM118.281 2.625L118.25 2.65625V2.6875C118.583 2.95833 118.823 3.09375 118.969 3.09375V2.96875C118.969 2.82292 118.74 2.70833 118.281 2.625ZM109.469 2.6875L109.375 2.78125V2.8125C109.5 3 109.688 3.09375 109.938 3.09375H110.188L110.344 2.90625V2.84375C110.344 2.78125 110.167 2.72917 109.812 2.6875H109.469ZM117.094 2.90625H117.031V3C117.031 3.10417 117.104 3.15625 117.25 3.15625H117.281V2.96875L117.094 2.90625ZM108.906 3.03125L108.812 3.15625C108.812 3.17708 108.906 3.20833 109.094 3.25C109.24 3.22917 109.312 3.19792 109.312 3.15625L109.25 3.03125H108.906ZM110.719 3.5V3.71875V3.8125V3.9375L110.656 5.5C110.656 6.64583 110.833 8.34375 111.188 10.5938L111.281 12.125C111.906 12.125 113.01 11.9375 114.594 11.5625C115.24 11.5625 116.083 11.1979 117.125 10.4688C117.875 10.0938 118.521 9.63542 119.062 9.09375C119.646 8.23958 119.938 7.44792 119.938 6.71875C120 6.71875 120.031 6.5625 120.031 6.25V6.03125C120.031 5.78125 119.333 5.23958 117.938 4.40625C115.979 3.80208 114.698 3.38542 114.094 3.15625L113.438 3.09375C111.833 3.09375 110.927 3.22917 110.719 3.5ZM110.062 3.46875H110V3.71875H110.062L110.094 3.625V3.5625L110.062 3.46875ZM119.062 3.875H119.031V3.9375C119.198 4.16667 119.396 4.28125 119.625 4.28125V4.09375C119.396 3.94792 119.208 3.875 119.062 3.875ZM120.719 3.875L120.625 3.9375V4C120.688 4.10417 120.76 4.15625 120.844 4.15625L120.906 4.09375V4.0625L120.75 3.875H120.719ZM119.625 4.875H119.438V4.96875C119.458 5.05208 119.562 5.09375 119.75 5.09375H119.906L119.938 5.0625H120C120 4.9375 119.875 4.875 119.625 4.875ZM120.531 5.5V5.625L120.719 5.75L120.781 5.6875C120.719 5.5625 120.635 5.5 120.531 5.5ZM122.438 5.6875L122.375 5.75C122.396 5.89583 122.448 5.96875 122.531 5.96875H122.594L122.656 5.75L122.531 5.6875H122.438ZM121.688 6.53125L121.594 6.59375V6.65625L121.688 6.75H121.75V6.59375L121.688 6.53125ZM119.531 9.6875L119.562 9.75C119.875 9.5 120.031 9.28125 120.031 9.09375H119.906C119.656 9.34375 119.531 9.54167 119.531 9.6875ZM110.062 9.125L110 9.21875V9.3125H110.062L110.156 9.21875V9.125H110.062ZM117.188 11.0625L117.25 11.125C117.333 11.1042 117.406 11.0208 117.469 10.875V10.7812H117.375C117.25 10.8438 117.188 10.9375 117.188 11.0625ZM119.875 11.0312L119.812 11.125V11.1562L119.875 11.25H119.906L120.031 11.125L119.938 11.0312H119.875ZM115.125 12.0625V12.1562H115.219C115.823 12.0521 116.125 11.9583 116.125 11.875V11.8125H115.906C115.448 11.8333 115.188 11.9167 115.125 12.0625ZM118.219 12.25V12.2812H118.375C118.646 12.2812 118.979 12.1667 119.375 11.9375V11.8125H119.219C118.552 12 118.219 12.1458 118.219 12.25ZM117.125 12.4375L116.969 12.5938H117.031C117.177 12.5938 117.26 12.5521 117.281 12.4688V12.4375H117.125ZM115.688 12.8438L115.625 12.9375L115.875 13.0312H115.938L116 12.9375L115.938 12.8438H115.688ZM113.188 13.3125V13.375H113.344L114.031 13.1562C114.76 13.1354 115.146 13.0729 115.188 12.9688V12.9375H114.875C114.062 12.9375 113.5 13.0625 113.188 13.3125ZM111.5 13.1562L111.406 13.25C111.406 13.3333 111.542 13.375 111.812 13.375C112.021 13.3542 112.125 13.3125 112.125 13.25L112.031 13.1562H111.5ZM109.781 18.5312C109.781 18.9896 109.812 19.2188 109.875 19.2188H109.938V18.9375V17.875L109.875 17.8125C109.812 17.8125 109.781 18.0521 109.781 18.5312ZM109.938 19.75L109.875 19.6875C109.812 19.8125 109.781 19.9375 109.781 20.0625V20.1562H109.875L109.938 20.0938V19.75ZM107.938 21.7188L107.875 21.7812C107.896 21.8646 107.969 21.9062 108.094 21.9062C108.24 21.8854 108.312 21.8438 108.312 21.7812V21.7188H107.938ZM111.25 22.4688H110.875V22.5312L111.344 22.5938H111.75V22.5312L111.25 22.4688ZM111.625 22.7812H111.375V22.875H111.5L111.625 22.8438V22.7812ZM112.75 22.8438L112.531 22.875V22.9375L112.594 23H113.25V22.9375L112.75 22.8438ZM112.156 23.2812H112.031V23.375H112.156V23.2812ZM129.906 1.46875L131.875 1.28125C133.375 1.55208 134.292 1.78125 134.625 1.96875C136.125 2.90625 137.021 3.77083 137.312 4.5625L138.406 6.21875C138.677 7.38542 138.948 9.02083 139.219 11.125C139.052 13.75 138.802 15.2292 138.469 15.5625C138.24 16.4375 137.906 17.375 137.469 18.375C136.469 20.4375 135.771 21.6667 135.375 22.0625C134.542 22.7917 133.802 23.1562 133.156 23.1562C132.865 23.2188 132.719 23.3125 132.719 23.4375L131.344 23.9688L131.156 23.9375C130.26 24.0625 129.562 24.125 129.062 24.125H128.656C128.448 24.125 127.656 23.8646 126.281 23.3438C125.927 23.2188 125.479 22.8542 124.938 22.25C124.5 21.9375 124.281 21.6354 124.281 21.3438C123.698 20.5312 123.135 19.1979 122.594 17.3438C122.365 16.7188 122.25 16.3542 122.25 16.25L122.219 15.75C122.219 12.3333 122.719 9.82292 123.719 8.21875C124.052 7.76042 124.344 6.95833 124.594 5.8125L125.719 4.375C125.719 3.83333 126.542 3.05208 128.188 2.03125C128.188 1.92708 128.76 1.73958 129.906 1.46875ZM134.125 2.0625H134V2.25C134.625 2.625 135 2.8125 135.125 2.8125V2.75C134.667 2.29167 134.333 2.0625 134.125 2.0625ZM132.938 2.34375L132.844 2.4375V2.46875C133.552 2.96875 134.375 3.34375 135.312 3.59375V3.53125C135.167 3.34375 134.896 3.17708 134.5 3.03125C134.5 2.92708 134.188 2.77083 133.562 2.5625C133.438 2.41667 133.271 2.34375 133.062 2.34375H132.938ZM129.094 3.21875V3.28125C129.177 3.28125 129.698 3.10417 130.656 2.75L131.031 2.625V2.46875C130.51 2.46875 129.865 2.71875 129.094 3.21875ZM124.562 13.1562V15.7812C124.562 17.5938 125.031 18.7604 125.969 19.2812C126.906 20.2188 127.5 20.6875 127.75 20.6875C128.375 20.6875 128.885 20.8854 129.281 21.2812L129.562 21.3438L129.906 21.2812L130.188 21.5625H130.219C130.344 21.5625 130.5 21.4479 130.688 21.2188C131.646 21.0729 132.302 20.8542 132.656 20.5625C134.115 19.1042 134.844 18.2917 134.844 18.125C135.719 16.0417 136.156 14.7292 136.156 14.1875C136.656 12.2708 137.021 11.3125 137.25 11.3125H137.312V11.125C137.312 10.875 137.177 10.4792 136.906 9.9375C136.76 8.27083 136.562 7.25 136.312 6.875C135.875 5.6875 134.75 4.63542 132.938 3.71875C132.312 3.42708 131.938 3.28125 131.812 3.28125H131.594C130.656 3.69792 130.146 3.90625 130.062 3.90625C130 3.90625 129.969 3.98958 129.969 4.15625C128.802 4.94792 128.104 5.46875 127.875 5.71875L126.344 7.6875C125.969 8.16667 125.646 8.76042 125.375 9.46875C124.833 10.7188 124.562 11.9479 124.562 13.1562ZM125.688 5.96875V6H125.75C127.25 4.6875 128 3.95833 128 3.8125H127.969C127.51 3.8125 127.01 4.20833 126.469 5C126.365 5 126.198 5.11458 125.969 5.34375C125.781 5.34375 125.688 5.55208 125.688 5.96875ZM135.688 3.90625L135.562 4.03125H135.812L135.688 3.90625ZM128.312 4.53125V4.5625H128.406C128.99 4.41667 129.281 4.23958 129.281 4.03125L129.219 3.96875H129.125C128.583 4.09375 128.312 4.28125 128.312 4.53125ZM135 4.3125C135 4.5625 135.292 4.8125 135.875 5.0625H136C136.062 5.0625 136.094 5.01042 136.094 4.90625C136.094 4.73958 135.729 4.54167 135 4.3125ZM136.938 5.21875L136.844 5.34375V5.46875C136.844 5.63542 137.156 6.28125 137.781 7.40625L137.469 6.09375C137.469 5.51042 137.312 5.21875 137 5.21875H136.938ZM125.188 6.125L125.125 6.21875V6.28125H125.281V6.125H125.188ZM125.062 6.5H124.969V6.59375L125.062 6.53125V6.5ZM125.75 7.15625L125.5 7.40625V7.53125H125.625C125.75 7.53125 125.812 7.41667 125.812 7.1875V7.15625H125.75ZM138.062 8.25L137.875 8.09375L137.844 8.15625V8.1875L137.938 8.53125H138.062V8.25ZM124.719 9.09375V9.28125L124.844 9.375C124.844 9.27083 124.979 8.97917 125.25 8.5L125.281 8.25H125.188C124.979 8.4375 124.823 8.71875 124.719 9.09375ZM137.312 12H137.156V12.125H137.219L137.312 12.0312V12ZM137.938 12.3125H137.875C137.792 12.625 137.75 12.9792 137.75 13.375V13.4062H137.781C137.906 13.3854 137.969 13.2812 137.969 13.0938V12.5L137.938 12.3125ZM138.438 14.25V14.375H138.562C138.688 13.9375 138.75 13.6042 138.75 13.375V13.2812H138.656C138.531 13.2812 138.458 13.6042 138.438 14.25ZM136.688 14.25V14.4375H136.844L136.938 14.1562L136.875 13.8438H136.844C136.74 13.8438 136.688 13.9792 136.688 14.25ZM135.906 17.3438H135.969C136.115 17.3438 136.25 17.0208 136.375 16.375C136.583 16.0208 136.688 15.5521 136.688 14.9688V14.875L136.656 14.7812C136.469 14.7812 136.25 15.5104 136 16.9688L135.969 17.0312L135.906 17.3438ZM123.594 15.7812L123.5 15.8438V15.875L123.594 15.9688H123.625L123.719 15.875V15.8438L123.625 15.7812H123.594ZM122.688 16.25L122.594 16.375V16.625L122.656 16.6875H122.719L122.781 16.5V16.3438L122.688 16.25ZM135.25 18.0938L135.312 18.3438C134.708 19.1354 134.406 19.5729 134.406 19.6562H134.625L134.656 19.5938H134.688L134.719 19.6562V19.6875L133.281 20.875L133.25 20.9688H133.281L133.312 21.0312H133.375C133.792 20.8854 134.281 20.5312 134.844 19.9688C135.365 19.3021 135.667 18.7083 135.75 18.1875V18.0938V17.875C135.75 17.7292 135.698 17.6354 135.594 17.5938H135.531C135.427 17.5938 135.333 17.7604 135.25 18.0938ZM123.812 18.3125H123.781V18.625C123.781 18.875 123.917 19.0938 124.188 19.2812H124.281V19.2188C124.281 18.9271 124.125 18.625 123.812 18.3125ZM134.5 22.0625V22.1875H134.531C135.344 21.6458 135.75 21.2396 135.75 20.9688H135.625C135.146 21.3438 134.771 21.7083 134.5 22.0625ZM130.906 21.4062V21.4688H131.25L131.344 21.3438V21.2812H131.25C131.042 21.2812 130.927 21.3229 130.906 21.4062ZM127.875 21.375C127.875 21.5208 128.021 21.6458 128.312 21.75V21.7188C128.312 21.5521 128.167 21.4375 127.875 21.375ZM125.812 21.8438H125.75V21.9688L125.844 22.0312H125.938V21.9688L125.812 21.8438ZM131.281 22.7188V22.8438H131.469C132.135 22.6771 132.469 22.4583 132.469 22.1875H132.438C132.271 22.1875 131.885 22.3646 131.281 22.7188ZM130.062 22.2812L129.594 22.3438V22.5H130.062H130.75V22.4375C130.75 22.3542 130.615 22.3021 130.344 22.2812H130.062ZM128.906 22.3125L128.812 22.375L129.125 22.5V22.4375C129.104 22.3542 129.031 22.3125 128.906 22.3125ZM133.312 22.625L133.25 22.7188V22.8438H133.375L133.5 22.7188L133.375 22.625H133.312ZM126.031 22.9062V22.9688C126.031 23.0729 126.385 23.2292 127.094 23.4375C127.969 23.7083 128.562 23.8438 128.875 23.8438C129.375 23.8438 130.135 23.7292 131.156 23.5V23.4375H130.562L128.438 23.5312L127.094 23.0625C126.677 22.9583 126.323 22.9062 126.031 22.9062ZM140.812 1.59375L141.156 1.5C142.823 1.5 144.26 1.6875 145.469 2.0625H146H146.406L146.469 2.21875L146.438 4.03125C146.417 4.15625 146.344 4.21875 146.219 4.21875L145.844 3.84375L145 3.65625H144.719L144.531 3.71875V3.84375C144.823 3.96875 145.01 4.03125 145.094 4.03125V4.09375C145.094 4.17708 144.854 4.23958 144.375 4.28125L144.188 10.375V11.0312L144.156 19.4062V19.9062C144.156 20.0938 144.74 20.1875 145.906 20.1875H151.906L152.906 20.25C153.031 20.25 153.135 19.6771 153.219 18.5312C153.281 18.2396 153.375 18.0938 153.5 18.0938C154.729 18.1354 155.344 18.25 155.344 18.4375C155.26 18.625 155.135 18.7188 154.969 18.7188V18.8125C155.177 19.0208 155.281 19.1979 155.281 19.3438C155.281 19.8229 155.208 20.4583 155.062 21.25V21.7188L155.094 21.875C154.969 22.1042 154.906 22.3125 154.906 22.5C154.865 22.5 154.781 22.6354 154.656 22.9062C154.198 23.0729 153.75 23.1562 153.312 23.1562H153.188L150.5 22.9062H150.344L144.188 23.1562L139.906 22.75C139.74 22.625 139.656 22.4896 139.656 22.3438C139.823 21.1146 140.083 20.5 140.438 20.5C140.542 20.3958 140.948 20.3125 141.656 20.25C141.927 19.5833 141.938 16.5625 141.688 11.1875C141.812 9.72917 141.917 7.5625 142 4.6875V4.375C142 4.0625 141.781 3.90625 141.344 3.90625L141.062 3.84375V3.75C141.438 3.5625 141.729 3.46875 141.938 3.46875V3.34375L141.219 3.25H140.781V3.375C140.865 3.375 140.906 3.40625 140.906 3.46875C140.844 3.57292 140.75 3.625 140.625 3.625H140.5C140.292 3.54167 140.188 3.30208 140.188 2.90625V2.8125C140.188 2.33333 140.323 2.03125 140.594 1.90625C140.656 1.90625 140.729 1.80208 140.812 1.59375ZM141.062 2.5625L140.969 2.625V2.6875H141.125L141.219 2.59375V2.5625H141.062ZM145.219 2.59375L145.094 2.6875V2.75L145.312 2.8125V2.84375L145.219 2.90625L144.594 2.875L144.562 2.90625V3.0625L144.656 3.15625H145.281C145.615 3.15625 145.781 3.04167 145.781 2.8125C145.635 2.66667 145.479 2.59375 145.312 2.59375H145.219ZM142.906 2.8125C142.99 2.95833 143.219 3.03125 143.594 3.03125H143.812L143.969 2.875C143.781 2.75 143.594 2.6875 143.406 2.6875H143.156C142.99 2.6875 142.906 2.72917 142.906 2.8125ZM143.625 3.375L143.469 3.4375V3.46875L143.531 3.59375H143.75L143.938 3.53125V3.4375L143.75 3.375H143.625ZM143.5 4.03125L143.469 4.09375V4.53125C143.49 4.80208 143.542 4.9375 143.625 4.9375L143.812 4.8125V4.59375C143.792 4.21875 143.688 4.03125 143.5 4.03125ZM143.281 10.2188H143.188C143.021 11.0938 143.01 11.6667 143.156 11.9375C143.26 12.125 143.333 12.0625 143.375 11.75L143.406 10.7188C143.385 10.3854 143.344 10.2188 143.281 10.2188ZM154.75 19.2812H154.688C154.521 19.7188 154.438 19.9688 154.438 20.0312L154.188 21.3438V21.4688L154.281 21.5625H154.375C154.646 21.4375 154.802 20.8438 154.844 19.7812C154.823 19.4479 154.792 19.2812 154.75 19.2812ZM143.156 19.4062H143V19.5C142.896 19.8125 142.844 20.0417 142.844 20.1875C142.844 20.4792 142.917 20.6562 143.062 20.7188H143.188C143.271 20.7188 143.312 20.4167 143.312 19.8125V19.6875C143.312 19.5417 143.26 19.4479 143.156 19.4062ZM151.75 20.4688H151.438V20.5625C151.438 20.625 151.573 20.6667 151.844 20.6875C151.844 20.8542 152.031 20.9479 152.406 20.9688L153 20.9062V20.7812C152.604 20.7812 152.188 20.6771 151.75 20.4688ZM150.875 20.7812H150.062V20.8125C150.083 20.875 150.188 20.9062 150.375 20.9062H151.062V20.8125L150.875 20.7812ZM140.25 21.25C140.417 21.25 140.5 21.1771 140.5 21.0312V20.9688H140.438C140.312 20.9896 140.25 21.0833 140.25 21.25ZM143.344 21.1875H143.188V21.3438C143.562 21.4062 145.438 21.5208 148.812 21.6875L148.875 21.6562V21.5938L143.344 21.1875ZM140.312 21.4688L140.125 21.5V21.5938L140.219 21.6875H140.312L140.406 21.5938V21.5625L140.312 21.4688ZM150.625 21.75L150.562 21.8125V21.875L150.844 21.9375H151.281V21.875C151.281 21.7917 151.208 21.75 151.062 21.75H150.625ZM151.969 22.1562V22.1875H152.062C152.271 22.1875 152.479 22.1042 152.688 21.9375C152.667 21.8542 152.583 21.8125 152.438 21.8125C152.354 21.8125 152.198 21.9271 151.969 22.1562ZM152.875 22.2812L152.406 22.3125V22.3438C152.573 22.5104 152.781 22.5938 153.031 22.5938H153.125C153.229 22.5938 153.323 22.5521 153.406 22.4688C153.51 22.5521 153.625 22.5938 153.75 22.5938H154C154.229 22.5938 154.354 22.5521 154.375 22.4688V22.4375C154.375 22.3333 154.052 22.2812 153.406 22.2812H152.875ZM144.344 22.5625L143.656 22.5938V22.6562C143.656 22.8021 144.146 22.8958 145.125 22.9375C145.771 22.9375 146.302 22.875 146.719 22.75V22.6562C145.844 22.5938 145.062 22.5625 144.375 22.5625H144.344ZM143.031 22.6562H142.969V22.75H143.031V22.6562ZM147.906 22.6562L147.719 22.7188V22.8438H147.906L148.281 22.75V22.6562H147.906ZM156.938 2.6875L157.062 2.71875V2.75L158.281 2.6875L158.75 2.71875C160.188 2.71875 161.583 2.55208 162.938 2.21875L163.125 2.25V2.3125L163 2.53125C163.188 2.65625 163.427 2.71875 163.719 2.71875C164.094 3.15625 164.281 3.78125 164.281 4.59375V4.6875C164.281 5.10417 163.781 5.35417 162.781 5.4375C161.927 5.4375 161.5 5.6875 161.5 6.1875V10.4062C161.5 10.8438 161.396 11.0625 161.188 11.0625L161.156 11.125V11.4375L161.438 11.75L161.219 12.1875V12.2188L161.469 13.7188C161.469 14.5521 161.552 16.2812 161.719 18.9062C161.615 19.7396 161.5 20.2188 161.375 20.3438C161.375 20.4688 161.49 20.5312 161.719 20.5312H161.844C162.698 20.2812 163.604 20.1562 164.562 20.1562C165.062 20.1562 165.312 20.4479 165.312 21.0312V21.3125C165.312 22.3542 165.198 22.875 164.969 22.875H164.188L163.719 23L163.406 22.8125L156.75 23C156.458 23 156.312 22.5312 156.312 21.5938V20.9375C156.333 20.7917 156.365 20.7188 156.406 20.7188H156.469C156.531 20.7188 156.604 20.8542 156.688 21.125H156.781V20.75L156.75 20.4688L156.906 20.4062C157.26 20.4062 157.885 20.4688 158.781 20.5938H158.906C159.052 20.5938 159.146 20.5104 159.188 20.3438L159.062 19.1562L159.219 17.25C158.948 9.60417 158.698 5.78125 158.469 5.78125L155.719 5.625C155.406 5.3125 155.25 5.05208 155.25 4.84375V4.3125L155.281 3.6875C155.281 3.3125 155.271 2.95833 155.25 2.625L155.375 2.78125H155.531C156.031 2.78125 156.49 2.77083 156.906 2.75V2.71875L156.938 2.6875ZM156.156 5.15625L156.031 5.25V5.3125C156.052 5.39583 156.156 5.4375 156.344 5.4375C156.49 5.4375 156.573 5.39583 156.594 5.3125V5.28125C156.573 5.19792 156.448 5.15625 156.219 5.15625H156.156ZM160.031 6.34375V6.625H160.094C160.198 6.625 160.26 6.46875 160.281 6.15625V6H160.219C160.094 6.04167 160.031 6.15625 160.031 6.34375ZM164.281 22.0312V22.0938H164.375C164.479 22.0521 164.562 21.9688 164.625 21.8438V21.8125L164.531 21.75C164.365 21.8125 164.281 21.9062 164.281 22.0312ZM158.906 3.6875H158.562V3.71875L158.625 3.78125H158.844L158.906 3.71875V3.6875ZM161.688 21.375L161.531 21.5V21.5312L161.688 21.5938L161.812 21.4688L161.719 21.375H161.688ZM161.438 11.3438L161.5 11.2812L161.594 11.3438L161.5 11.4375L161.438 11.3438ZM159.656 6.40625L159.562 6.53125V6.5625L159.688 6.40625H159.656ZM173.312 1.5L175.375 1.90625C175.729 1.90625 176.333 2.20833 177.188 2.8125H177.312C177.333 2 177.406 1.59375 177.531 1.59375C178.156 1.82292 178.531 1.9375 178.656 1.9375H179.281L179.781 1.90625L179.844 2L179.812 2.1875V6.1875C179.812 6.41667 179.74 6.60417 179.594 6.75C179.76 6.91667 179.844 7.07292 179.844 7.21875C179.844 7.36458 179.781 7.54167 179.656 7.75L179.75 8.28125C179.75 8.53125 179.688 8.65625 179.562 8.65625L178.75 8.53125H178.719L178.281 8.65625H178.219C178.135 8.65625 178 8.20833 177.812 7.3125C177.812 7.02083 177.688 6.76042 177.438 6.53125C177.167 6.13542 177.031 5.86458 177.031 5.71875L177.219 5.65625V5.625C176.906 5.375 176.719 5.09375 176.656 4.78125C175.802 3.92708 175.073 3.5 174.469 3.5H174.25C174.021 3.5 172.979 3.71875 171.125 4.15625C170.958 4.28125 170.688 4.67708 170.312 5.34375C169.917 5.86458 169.719 6.36458 169.719 6.84375C169.844 8.17708 170.01 8.84375 170.219 8.84375C170.49 9.55208 170.812 9.97917 171.188 10.125C171.25 10.2292 171.5 10.3333 171.938 10.4375C172.229 10.7083 172.844 11.0417 173.781 11.4375C173.781 11.5208 173.885 11.5729 174.094 11.5938L174.469 11.4688C174.635 11.5104 174.719 11.5521 174.719 11.5938V11.625L174.594 11.75V11.8438C174.885 12.1979 175.24 12.375 175.656 12.375V12.3438L175.062 11.8438V11.8125C175.25 11.8125 175.917 12.1771 177.062 12.9062C178.792 14.5104 179.656 15.5312 179.656 15.9688C179.948 17.2396 180.094 18.0312 180.094 18.3438C179.906 19.9271 179.729 20.7188 179.562 20.7188L178.812 22.0312C177.375 22.9062 176.531 23.3438 176.281 23.3438C173.885 22.8229 172.292 22.4062 171.5 22.0938C169.875 20.5729 169.062 19.6771 169.062 19.4062L168.938 19.3125L168.875 19.3438V19.5V21.25C168.875 21.3958 168.5 21.4688 167.75 21.4688H167.188L166.719 21.625C166.573 21.625 166.385 21.5104 166.156 21.2812V21.25L166.312 21C166.458 17.5 166.635 15.75 166.844 15.75H166.906L167.469 15.8438C167.573 15.8438 167.677 15.8125 167.781 15.75L168.188 15.8438L168.406 15.7812H168.531C168.615 15.8229 168.802 16.125 169.094 16.6875C169.885 17.6875 170.594 18.6458 171.219 19.5625C171.302 19.5625 171.562 19.8438 172 20.4062L173.938 21.25H174.5V21.375H174.562L174.719 21.2812H174.781C174.948 21.4062 175.104 21.4688 175.25 21.4688H175.438C176 21.4479 176.281 21.375 176.281 21.25V21.1875H175.656L175.281 21.1562C175.302 21.0729 176.042 20.9167 177.5 20.6875C177.833 20.6875 178.156 20.1042 178.469 18.9375C178.469 18.5625 178.562 18.2917 178.75 18.125V18C178.396 16.8958 178 16.1771 177.562 15.8438C177.312 15.4062 176.365 14.8958 174.719 14.3125C173.635 13.8958 172.76 13.4062 172.094 12.8438C171.115 12.5521 170.552 12.2292 170.406 11.875C170.281 11.6042 169.802 11.1562 168.969 10.5312C168.594 9.38542 168.188 8.5 167.75 7.875C167.521 6.95833 167.406 5.98958 167.406 4.96875C167.573 4.28125 168.323 3.33333 169.656 2.125C170.427 1.70833 171.646 1.5 173.312 1.5ZM169.656 2.59375H170.031C170.198 2.59375 170.969 2.41667 172.344 2.0625C172.844 1.97917 173.094 1.89583 173.094 1.8125L172.969 1.78125C170.76 1.96875 169.656 2.23958 169.656 2.59375ZM177.906 2.1875L177.875 2.3125V2.40625C177.875 2.53125 177.958 2.59375 178.125 2.59375H178.656V2.5625C178.448 2.3125 178.198 2.1875 177.906 2.1875ZM170.594 3.75H170.656C170.865 3.75 171.354 3.5625 172.125 3.1875L172.969 2.875V2.90625L172.875 3.09375H173.125L173.312 3.03125V2.90625L173.25 2.8125V2.625H173.188C172.354 2.875 171.667 3.13542 171.125 3.40625C170.771 3.46875 170.594 3.58333 170.594 3.75ZM175.875 2.875H175.344C175.344 2.91667 175.656 3.02083 176.281 3.1875H176.438L176.5 3.15625V3.09375C176.438 2.94792 176.229 2.875 175.875 2.875ZM178.031 2.90625L177.969 3.03125V3.09375L178 3.28125H178.094L178.188 3.1875V3.03125L178.094 2.90625H178.031ZM169.812 3.34375V3.375C169.812 3.4375 169.854 3.46875 169.938 3.46875C170.042 3.42708 170.115 3.35417 170.156 3.25V3.1875C169.969 3.1875 169.854 3.23958 169.812 3.34375ZM176.906 3.5L177.062 3.65625H177.219L177.312 3.5625V3.46875C177.312 3.40625 177.229 3.34375 177.062 3.28125C176.958 3.32292 176.906 3.39583 176.906 3.5ZM178.5 3.9375L178.594 4V4.03125L178.469 4.1875V4.28125C178.469 4.32292 178.552 4.375 178.719 4.4375C178.76 4.60417 178.823 4.69792 178.906 4.71875H179V4.59375L178.969 4.5V4.375H179.062L179.219 4.5H179.281L179.312 4.3125V4.25C179.167 3.66667 179.062 3.375 179 3.375H178.812C178.604 3.45833 178.5 3.64583 178.5 3.9375ZM169.625 4.71875L169.812 4.90625H169.875C170.125 4.86458 170.354 4.72917 170.562 4.5L170.469 4.4375H170.125C169.896 4.4375 169.729 4.53125 169.625 4.71875ZM168.25 4.46875L168.156 4.5625V4.59375H168.312V4.46875H168.25ZM169.094 5.9375V5.96875H169.156C169.531 5.61458 169.719 5.30208 169.719 5.03125L169.625 4.9375C169.375 4.9375 169.198 5.27083 169.094 5.9375ZM179.281 5.03125H179.125V5.09375C179.188 5.21875 179.25 5.28125 179.312 5.28125V5.15625L179.281 5.03125ZM178.969 5.25L178.875 5.34375H178.969V5.25ZM178.469 5.40625L178.344 5.5V5.53125L178.469 5.65625H178.594L178.719 5.53125V5.5L178.594 5.40625H178.469ZM179.188 5.71875L179.062 5.8125V6.03125L179.094 6.25H179.188L179.281 5.71875H179.188ZM178.531 6.25H178.469V6.3125L178.531 6.40625H178.656V6.3125L178.531 6.25ZM178.438 7.09375V7.59375L178.5 7.65625H178.531C178.698 7.65625 178.792 7.58333 178.812 7.4375C178.708 7.1875 178.656 6.97917 178.656 6.8125H178.594C178.49 6.85417 178.438 6.94792 178.438 7.09375ZM178.594 8.09375L178.5 8.1875L178.656 8.28125H178.75L178.781 8.1875L178.656 8.09375H178.594ZM168.969 9.4375V9.65625L169.094 9.78125H169.344V9.65625C169.198 9.51042 169.073 9.4375 168.969 9.4375ZM169.562 10.2812H169.531V10.4375C169.969 10.75 170.26 10.9062 170.406 10.9062H170.531V10.7812C170.24 10.5729 169.917 10.4062 169.562 10.2812ZM173.469 11.3438H173.188C173.208 11.4271 173.292 11.4688 173.438 11.4688H173.562V11.4375L173.469 11.3438ZM173.781 11.8125L173.688 11.875C173.771 12 174.115 12.1979 174.719 12.4688V12.3438C174.427 12.0729 174.115 11.8958 173.781 11.8125ZM174.5 13.6875H174.344V13.8438C174.615 13.9688 174.948 14.0417 175.344 14.0625C175.344 14.1458 175.417 14.1875 175.562 14.1875H175.812V14.1562C175.812 13.9688 175.375 13.8125 174.5 13.6875ZM176.594 14.5312H176.5V14.625L176.594 14.7188H176.656V14.625L176.594 14.5312ZM167.188 17.75H167.062C166.958 18.0625 166.906 18.4583 166.906 18.9375L166.969 19.3438H167C167.188 19.3438 167.281 19.2604 167.281 19.0938C167.219 18.6146 167.188 18.1667 167.188 17.75ZM167.844 18.6562C167.74 19.0104 167.625 19.2396 167.5 19.3438L167.625 19.6875V20.5V20.6875C167.625 20.8333 167.667 20.9062 167.75 20.9062H167.938L168.031 20.8125V20.6875C168.031 19.3333 167.969 18.6562 167.844 18.6562ZM169.562 19.4375H169.531V19.5C169.615 19.8333 169.771 20 170 20V19.9375C169.854 19.6042 169.708 19.4375 169.562 19.4375ZM167 20.125L167.062 20.1875H167.094C167.156 20.1875 167.208 19.9792 167.25 19.5625L167.188 19.5C167.104 19.5 167.042 19.7083 167 20.125ZM170.656 19.7188H170.594V19.75C170.76 20.0625 170.927 20.2188 171.094 20.2188V20.125C170.927 19.9375 170.781 19.8021 170.656 19.7188ZM178.75 20.25L178.594 20.4062L178.719 20.5312H178.875L179 20.4062V20.3438L178.906 20.25H178.75ZM172.5 20.9688V21C172.542 21.1042 172.615 21.1562 172.719 21.1562C172.677 21.0312 172.604 20.9688 172.5 20.9688ZM171 21.0312L170.781 21V21.0312C170.99 21.4896 171.51 21.8438 172.344 22.0938C173.031 22.3438 174 22.6042 175.25 22.875C175.5 23.0417 175.719 23.1354 175.906 23.1562H176.188C176.708 23.0104 176.969 22.8229 176.969 22.5938L174.156 22.375C172.51 21.8542 171.458 21.4062 171 21.0312ZM176.5 21.9375V22L176.594 22.0625H176.75C177.5 22.0625 177.917 21.9583 178 21.75L177.875 21.6875H177.688C177.458 21.6875 177.062 21.7708 176.5 21.9375ZM175.562 22.7188V22.5938H175.625C175.771 22.5938 175.844 22.6354 175.844 22.7188H175.75H175.562Z" fill="#CA368F"/>
</svg>
