<svg width="943" height="262" viewBox="0 0 943 262" fill="none" xmlns="http://www.w3.org/2000/svg">
<path d="M831 106V132.5" stroke="#F1D4AE"/>
<path d="M824 103L858.291 110L886.53 104.4L907.709 103H942" stroke="#F1D4AE" stroke-width="3"/>
<path d="M941.5 104.5V132.5L929 104.5M941.5 104.5H929M941.5 104.5L929 132.5M908.5 104.5L907 104.605M908.5 104.5H929M908.5 104.5L929 132.5M887 106L868.5 109.5M887 106L868.5 132.5V109.743M887 106L907 132.5M887 106L905.5 104.709M887 106V132.5M868.5 109.5L858.5 112M868.5 109.5V109.743M858.5 112L847.216 109.743M858.5 112V132.5M830.95 106L846 109.5L847.216 109.743M830.95 106L824.5 104.5V116.5L830.95 106ZM830.95 106L847.216 132.5V109.743M830.95 132.5L847.216 109.743M887 132.5L868.5 109.743M887 132.5L905.5 104.709M907 132.5V104.605M907 132.5L929 104.5M907 104.605L905.5 104.709M929 132.5V104.5" stroke="#F1D4AE"/>
<line x1="830" y1="135" x2="943" y2="135" stroke="#F1D4AE" stroke-width="6"/>
<path d="M888 103.5V61M888 61V35H899.5L916.5 101L906.5 103.5L897.959 70.5M888 61H895.5L897.959 70.5M897.959 70.5L899.5 103.5" stroke="#F1D4AE" stroke-width="2"/>
<path d="M906.476 103L913.619 91M913.619 91L916 100L904.095 94L913.619 91ZM913.619 91L902.19 86M911.714 83L904.095 93.5L902.19 86M911.714 83L902.19 86M911.714 83L900.286 78.5M902.19 86L909.81 76M909.81 76L900.286 78.5M909.81 76L907.905 68M909.81 76L898.857 71M900.286 78.5L907.905 68M907.905 68L898.857 71M907.905 68L896.952 64M898.857 71L906 61.5L896.952 64M896.952 64L896 60.5L905.048 58" stroke="#F1D4AE" stroke-width="0.5"/>
<path d="M894 36.5L900 59.5" stroke="#F1D4AE" stroke-width="9.5"/>
<path d="M892.5 60C892.5 44.8 892.5 37.6667 892.5 36" stroke="#F1D4AE" stroke-width="9.5"/>
<path d="M661.353 101V127.5" stroke="#F1D4AE"/>
<path d="M652 98L697.817 105L735.548 99.4L763.847 98H809.664" stroke="#F1D4AE" stroke-width="3"/>
<path d="M808.996 99.5V127.5L792.294 99.5M808.996 99.5H792.294M808.996 99.5L792.294 127.5M764.903 99.5L762.899 99.6047M764.903 99.5H792.294M764.903 99.5L792.294 127.5M736.176 101L711.458 104.5M736.176 101L711.458 127.5V104.743M736.176 101L762.899 127.5M736.176 101L760.895 99.7093M736.176 101V127.5M711.458 104.5L698.097 107M711.458 104.5V104.743M698.097 107L683.019 104.743M698.097 107V127.5M661.286 101L681.395 104.5L683.019 104.743M661.286 101L652.668 99.5V111.5L661.286 101ZM661.286 101L683.019 127.5V104.743M661.286 127.5L683.019 104.743M736.176 127.5L711.458 104.743M736.176 127.5L760.895 99.7093M762.899 127.5V99.6047M762.899 127.5L792.294 99.5M762.899 99.6047L760.895 99.7093M792.294 127.5V99.5" stroke="#F1D4AE"/>
<line x1="660.017" y1="130" x2="811" y2="130" stroke="#F1D4AE" stroke-width="6"/>
<rect x="766" y="131" width="67" height="131" rx="1" fill="#D59E9E"/>
<path d="M777 74.5L799.5 40L824 74.5V118.5H777V74.5Z" fill="#D59E9E"/>
<path d="M799.5 82L832.842 131.5H766.158L799.5 82Z" fill="#D59E9E"/>
<rect x="771" y="135" width="27" height="5" fill="#F5F4D6"/>
<rect x="771" y="143" width="27" height="5" fill="#F5F4D6"/>
<rect x="771" y="150" width="27" height="5" fill="#F5F4D6"/>
<rect x="771" y="157" width="27" height="5" fill="#F5F4D6"/>
<rect x="771" y="164" width="27" height="5" fill="#F5F4D6"/>
<rect x="771" y="172" width="27" height="5" fill="#F5F4D6"/>
<rect x="771" y="179" width="27" height="5" fill="#F5F4D6"/>
<rect x="771" y="186" width="27" height="5" fill="#F5F4D6"/>
<rect x="771" y="193" width="27" height="5" fill="#F5F4D6"/>
<rect x="771" y="201" width="27" height="5" fill="#F5F4D6"/>
<rect x="771" y="208" width="27" height="5" fill="#F5F4D6"/>
<rect x="771" y="215" width="27" height="5" fill="#F5F4D6"/>
<rect x="802" y="193" width="26" height="5" fill="#F5F4D6"/>
<rect x="802" y="201" width="26" height="5" fill="#F5F4D6"/>
<rect x="802" y="208" width="26" height="5" fill="#F5F4D6"/>
<rect x="802" y="215" width="26" height="5" fill="#F5F4D6"/>
<rect x="802" y="164" width="26" height="5" fill="#F5F4D6"/>
<rect x="802" y="172" width="26" height="5" fill="#F5F4D6"/>
<rect x="802" y="179" width="26" height="5" fill="#F5F4D6"/>
<rect x="802" y="186" width="26" height="5" fill="#F5F4D6"/>
<rect x="802" y="135" width="27" height="5" fill="#F5F4D6"/>
<rect x="802" y="143" width="27" height="5" fill="#F5F4D6"/>
<rect x="802" y="150" width="27" height="5" fill="#F5F4D6"/>
<rect x="802" y="157" width="27" height="5" fill="#F5F4D6"/>
<rect x="802" y="222" width="26" height="5" fill="#F5F4D6"/>
<rect x="772" y="222" width="26" height="5" fill="#F5F4D6"/>
<rect x="802" y="79" width="8" height="5" fill="#F5F4D6"/>
<rect x="791" y="79" width="8" height="5" fill="#F5F4D6"/>
<rect x="802" y="86" width="8" height="5" fill="#F5F4D6"/>
<rect x="791" y="86" width="8" height="5" fill="#F5F4D6"/>
<rect x="802" y="94" width="8" height="5" fill="#F5F4D6"/>
<rect x="791" y="94" width="8" height="5" fill="#F5F4D6"/>
<rect x="802" y="102" width="8" height="5" fill="#F5F4D6"/>
<rect x="791" y="102" width="8" height="5" fill="#F5F4D6"/>
<rect x="802" y="109" width="8" height="5" fill="#F5F4D6"/>
<rect x="791" y="109" width="8" height="5" fill="#F5F4D6"/>
<rect x="815" y="79" width="3" height="5" fill="#F5F4D6"/>
<rect x="819" y="79" width="3" height="5" fill="#F5F4D6"/>
<rect x="815" y="86" width="3" height="5" fill="#F5F4D6"/>
<rect x="819" y="86" width="3" height="5" fill="#F5F4D6"/>
<rect x="815" y="94" width="3" height="5" fill="#F5F4D6"/>
<rect x="819" y="94" width="3" height="5" fill="#F5F4D6"/>
<rect x="815" y="102" width="3" height="5" fill="#F5F4D6"/>
<rect x="819" y="102" width="3" height="5" fill="#F5F4D6"/>
<rect x="815" y="109" width="3" height="5" fill="#F5F4D6"/>
<rect x="819" y="109" width="3" height="5" fill="#F5F4D6"/>
<rect x="779" y="109" width="3" height="5" fill="#F5F4D6"/>
<rect x="783" y="109" width="3" height="5" fill="#F5F4D6"/>
<rect x="779" y="102" width="3" height="5" fill="#F5F4D6"/>
<rect x="783" y="102" width="3" height="5" fill="#F5F4D6"/>
<rect x="779" y="94" width="3" height="5" fill="#F5F4D6"/>
<rect x="783" y="94" width="3" height="5" fill="#F5F4D6"/>
<rect x="779" y="86" width="3" height="5" fill="#F5F4D6"/>
<rect x="783" y="86" width="3" height="5" fill="#F5F4D6"/>
<rect x="779" y="79" width="3" height="5" fill="#F5F4D6"/>
<rect x="783" y="79" width="3" height="5" fill="#F5F4D6"/>
<rect x="340" y="1" width="72" height="261" fill="#719CB8"/>
<rect x="367" y="60" width="19" height="4" fill="white"/>
<rect x="367" y="68" width="19" height="4" fill="white"/>
<rect x="367" y="76" width="19" height="4" fill="white"/>
<rect x="367" y="84" width="19" height="4" fill="white"/>
<rect x="367" y="92" width="19" height="4" fill="white"/>
<rect x="367" y="100" width="19" height="4" fill="white"/>
<rect x="367" y="108" width="19" height="4" fill="white"/>
<rect x="367" y="116" width="19" height="4" fill="white"/>
<rect x="367" y="124" width="19" height="4" fill="white"/>
<rect x="367" y="132" width="19" height="4" fill="white"/>
<rect x="367" y="140" width="19" height="4" fill="white"/>
<rect x="367" y="148" width="19" height="4" fill="white"/>
<rect x="367" y="156" width="19" height="4" fill="white"/>
<rect x="367" y="164" width="19" height="4" fill="white"/>
<rect x="367" y="172" width="19" height="4" fill="white"/>
<rect x="367" y="180" width="19" height="4" fill="white"/>
<rect x="367" y="188" width="19" height="4" fill="white"/>
<rect x="367" y="196" width="19" height="4" fill="white"/>
<rect x="367" y="204" width="19" height="4" fill="white"/>
<rect x="367" y="212" width="19" height="4" fill="white"/>
<rect x="367" y="220" width="19" height="4" fill="white"/>
<rect x="367" y="228" width="19" height="4" fill="white"/>
<rect x="367" y="236" width="19" height="4" fill="white"/>
<rect x="367" y="244" width="19" height="4" fill="white"/>
<rect x="343" y="36" width="19" height="4" fill="white"/>
<rect x="343" y="44" width="19" height="4" fill="white"/>
<rect x="343" y="52" width="19" height="4" fill="white"/>
<rect x="343" y="60" width="19" height="4" fill="white"/>
<rect x="343" y="68" width="19" height="4" fill="white"/>
<rect x="343" y="76" width="19" height="4" fill="white"/>
<rect x="343" y="84" width="19" height="4" fill="white"/>
<rect x="343" y="92" width="19" height="4" fill="white"/>
<rect x="343" y="100" width="19" height="4" fill="white"/>
<rect x="343" y="108" width="19" height="4" fill="white"/>
<rect x="343" y="116" width="19" height="4" fill="white"/>
<rect x="343" y="124" width="19" height="4" fill="white"/>
<rect x="343" y="132" width="19" height="4" fill="white"/>
<rect x="343" y="140" width="19" height="4" fill="white"/>
<rect x="343" y="148" width="19" height="4" fill="white"/>
<rect x="343" y="156" width="19" height="4" fill="white"/>
<rect x="343" y="164" width="19" height="4" fill="white"/>
<rect x="343" y="172" width="19" height="4" fill="white"/>
<rect x="343" y="180" width="19" height="4" fill="white"/>
<rect x="343" y="188" width="19" height="4" fill="white"/>
<rect x="343" y="196" width="19" height="4" fill="white"/>
<rect x="343" y="204" width="19" height="4" fill="white"/>
<rect x="343" y="212" width="19" height="4" fill="white"/>
<rect x="343" y="220" width="19" height="4" fill="white"/>
<rect x="343" y="228" width="19" height="4" fill="white"/>
<rect x="343" y="236" width="19" height="4" fill="white"/>
<rect x="343" y="244" width="19" height="4" fill="white"/>
<rect x="343" y="252" width="19" height="4" fill="white"/>
<rect x="391" y="84" width="19" height="4" fill="white"/>
<rect x="391" y="92" width="19" height="4" fill="white"/>
<rect x="391" y="100" width="19" height="4" fill="white"/>
<rect x="391" y="108" width="19" height="4" fill="white"/>
<rect x="391" y="116" width="19" height="4" fill="white"/>
<rect x="391" y="124" width="19" height="4" fill="white"/>
<rect x="391" y="132" width="19" height="4" fill="white"/>
<rect x="391" y="140" width="19" height="4" fill="white"/>
<rect x="391" y="148" width="19" height="4" fill="white"/>
<rect x="391" y="156" width="19" height="4" fill="white"/>
<rect x="391" y="164" width="19" height="4" fill="white"/>
<rect x="391" y="172" width="19" height="4" fill="white"/>
<rect x="391" y="180" width="19" height="4" fill="white"/>
<rect x="391" y="188" width="19" height="4" fill="white"/>
<rect x="391" y="196" width="19" height="4" fill="white"/>
<rect x="391" y="204" width="19" height="4" fill="white"/>
<rect x="391" y="212" width="19" height="4" fill="white"/>
<rect x="391" y="220" width="19" height="4" fill="white"/>
<rect x="391" y="228" width="19" height="4" fill="white"/>
<rect x="391" y="236" width="19" height="4" fill="white"/>
<rect x="391" y="244" width="19" height="4" fill="white"/>
<rect x="391" y="252" width="19" height="4" fill="white"/>
<rect x="367" y="252" width="19" height="4" fill="white"/>
<path d="M76.5 70L96.8516 93.25H56.1484L76.5 70Z" fill="#9AB2AB"/>
<rect x="64" y="93" width="25" height="73" fill="#9AB2AB"/>
<rect y="166" width="177" height="96" fill="#9AB2AB"/>
<path d="M68 234.847V234.847C70.4341 226.983 81.5659 226.983 84 234.847V234.847V262H68V234.847Z" fill="#D9D9D9"/>
<rect x="39" y="213" width="5" height="10" fill="#D9D9D9"/>
<rect x="47" y="213" width="5" height="10" fill="#D9D9D9"/>
<rect x="11" y="213" width="5" height="10" fill="#D9D9D9"/>
<rect x="19" y="213" width="5" height="10" fill="#D9D9D9"/>
<rect x="11" y="188" width="5" height="10" fill="#D9D9D9"/>
<rect x="19" y="188" width="5" height="10" fill="#D9D9D9"/>
<rect x="39" y="188" width="5" height="10" fill="#D9D9D9"/>
<rect x="47" y="188" width="5" height="10" fill="#D9D9D9"/>
<rect x="99" y="188" width="5" height="10" fill="#D9D9D9"/>
<rect x="107" y="188" width="5" height="10" fill="#D9D9D9"/>
<rect x="127" y="188" width="5" height="10" fill="#D9D9D9"/>
<rect x="135" y="188" width="5" height="10" fill="#D9D9D9"/>
<rect x="99" y="213" width="5" height="10" fill="#D9D9D9"/>
<rect x="107" y="213" width="5" height="10" fill="#D9D9D9"/>
<rect x="127" y="213" width="5" height="10" fill="#D9D9D9"/>
<rect x="135" y="213" width="5" height="10" fill="#D9D9D9"/>
<rect x="156" y="213" width="5" height="10" fill="#D9D9D9"/>
<rect x="164" y="213" width="5" height="10" fill="#D9D9D9"/>
<rect x="156" y="188" width="5" height="10" fill="#D9D9D9"/>
<rect x="164" y="188" width="5" height="10" fill="#D9D9D9"/>
<rect x="73" y="186" width="7" height="15" fill="#D9D9D9"/>
<rect x="73" y="124" width="7" height="15" fill="#D9D9D9"/>
<path d="M73 151.755V151.755C74.3602 148.741 78.6398 148.741 80 151.755V151.755V164H73V151.755Z" fill="#D9D9D9"/>
<rect x="177" y="121" width="104" height="141" fill="#C47F69"/>
<rect x="188" y="108" width="62" height="13" fill="#C47F69"/>
<rect x="192" y="249" width="56" height="3" fill="#F5F5F5" fill-opacity="0.8"/>
<rect x="192" y="243" width="56" height="3" fill="#F5F5F5" fill-opacity="0.8"/>
<rect x="192" y="237" width="56" height="3" fill="#F5F5F5" fill-opacity="0.8"/>
<rect x="192" y="255" width="68" height="3" fill="#F5F5F5" fill-opacity="0.8"/>
<rect x="192" y="231" width="68" height="3" fill="#F5F5F5" fill-opacity="0.8"/>
<rect x="192" y="207" width="68" height="3" fill="#F5F5F5" fill-opacity="0.8"/>
<rect x="192" y="183" width="68" height="3" fill="#F5F5F5" fill-opacity="0.8"/>
<rect x="188" y="160" width="72" height="3" fill="#F5F5F5" fill-opacity="0.8"/>
<rect x="188" y="142" width="72" height="3" fill="#F5F5F5" fill-opacity="0.8"/>
<rect x="188" y="124" width="76" height="3" fill="#F5F5F5" fill-opacity="0.8"/>
<rect x="192" y="225" width="56" height="3" fill="#F5F5F5" fill-opacity="0.8"/>
<rect x="192" y="219" width="56" height="3" fill="#F5F5F5" fill-opacity="0.8"/>
<rect x="192" y="213" width="56" height="3" fill="#F5F5F5" fill-opacity="0.8"/>
<rect x="192" y="202" width="56" height="3" fill="#F5F5F5" fill-opacity="0.8"/>
<rect x="192" y="196" width="56" height="3" fill="#F5F5F5" fill-opacity="0.8"/>
<rect x="192" y="190" width="56" height="3" fill="#F5F5F5" fill-opacity="0.8"/>
<rect x="206" y="130" width="42" height="3" fill="#F5F5F5" fill-opacity="0.8"/>
<rect x="206" y="136" width="42" height="3" fill="#F5F5F5" fill-opacity="0.8"/>
<rect x="206" y="148" width="42" height="3" fill="#F5F5F5" fill-opacity="0.8"/>
<rect x="206" y="154" width="42" height="3" fill="#F5F5F5" fill-opacity="0.8"/>
<rect x="188" y="166" width="60" height="3" fill="#F5F5F5" fill-opacity="0.8"/>
<rect x="193" y="172" width="55" height="3" fill="#F5F5F5" fill-opacity="0.8"/>
<rect x="197" y="178" width="51" height="3" fill="#F5F5F5" fill-opacity="0.8"/>
<rect x="264" y="174" width="103" height="88" fill="#B1D3E4"/>
<rect x="267" y="181" width="18" height="5" fill="#EEECC0"/>
<rect x="267" y="187" width="18" height="5" fill="#EEECC0"/>
<rect x="267" y="194" width="18" height="5" fill="#EEECC0"/>
<rect x="267" y="200" width="18" height="5" fill="#EEECC0"/>
<rect x="267" y="206" width="18" height="5" fill="#EEECC0"/>
<rect x="267" y="213" width="18" height="5" fill="#EEECC0"/>
<rect x="267" y="219" width="18" height="5" fill="#EEECC0"/>
<rect x="267" y="225" width="18" height="5" fill="#EEECC0"/>
<rect x="267" y="232" width="18" height="5" fill="#EEECC0"/>
<rect x="267" y="238" width="18" height="5" fill="#EEECC0"/>
<rect x="267" y="244" width="18" height="5" fill="#EEECC0"/>
<rect x="267" y="251" width="18" height="5" fill="#EEECC0"/>
<rect x="287" y="181" width="18" height="5" fill="#EEECC0"/>
<rect x="287" y="187" width="18" height="5" fill="#EEECC0"/>
<rect x="287" y="194" width="18" height="5" fill="#EEECC0"/>
<rect x="287" y="200" width="18" height="5" fill="#EEECC0"/>
<rect x="287" y="206" width="18" height="5" fill="#EEECC0"/>
<rect x="287" y="213" width="18" height="5" fill="#EEECC0"/>
<rect x="287" y="219" width="18" height="5" fill="#EEECC0"/>
<rect x="287" y="225" width="18" height="5" fill="#EEECC0"/>
<rect x="287" y="232" width="18" height="5" fill="#EEECC0"/>
<rect x="287" y="238" width="18" height="5" fill="#EEECC0"/>
<rect x="287" y="244" width="18" height="5" fill="#EEECC0"/>
<rect x="287" y="251" width="18" height="5" fill="#EEECC0"/>
<rect x="307" y="181" width="18" height="5" fill="#EEECC0"/>
<rect x="307" y="187" width="18" height="5" fill="#EEECC0"/>
<rect x="307" y="194" width="18" height="5" fill="#EEECC0"/>
<rect x="307" y="200" width="18" height="5" fill="#EEECC0"/>
<rect x="307" y="206" width="18" height="5" fill="#EEECC0"/>
<rect x="307" y="213" width="18" height="5" fill="#EEECC0"/>
<rect x="307" y="219" width="18" height="5" fill="#EEECC0"/>
<rect x="307" y="225" width="18" height="5" fill="#EEECC0"/>
<rect x="307" y="232" width="18" height="5" fill="#EEECC0"/>
<rect x="307" y="238" width="18" height="5" fill="#EEECC0"/>
<rect x="307" y="244" width="18" height="5" fill="#EEECC0"/>
<rect x="307" y="251" width="18" height="5" fill="#EEECC0"/>
<rect x="327" y="181" width="18" height="5" fill="#EEECC0"/>
<rect x="327" y="187" width="18" height="5" fill="#EEECC0"/>
<rect x="327" y="194" width="18" height="5" fill="#EEECC0"/>
<rect x="327" y="200" width="18" height="5" fill="#EEECC0"/>
<rect x="327" y="206" width="18" height="5" fill="#EEECC0"/>
<rect x="327" y="213" width="18" height="5" fill="#EEECC0"/>
<rect x="327" y="219" width="18" height="5" fill="#EEECC0"/>
<rect x="327" y="225" width="18" height="5" fill="#EEECC0"/>
<rect x="327" y="232" width="18" height="5" fill="#EEECC0"/>
<rect x="327" y="238" width="18" height="5" fill="#EEECC0"/>
<rect x="327" y="244" width="18" height="5" fill="#EEECC0"/>
<rect x="327" y="251" width="18" height="5" fill="#EEECC0"/>
<rect x="347" y="181" width="18" height="5" fill="#EEECC0"/>
<rect x="347" y="187" width="18" height="5" fill="#EEECC0"/>
<rect x="347" y="194" width="18" height="5" fill="#EEECC0"/>
<rect x="347" y="200" width="18" height="5" fill="#EEECC0"/>
<rect x="347" y="206" width="18" height="5" fill="#EEECC0"/>
<rect x="347" y="213" width="18" height="5" fill="#EEECC0"/>
<rect x="347" y="219" width="18" height="5" fill="#EEECC0"/>
<rect x="347" y="225" width="18" height="5" fill="#EEECC0"/>
<rect x="347" y="232" width="18" height="5" fill="#EEECC0"/>
<rect x="347" y="238" width="18" height="5" fill="#EEECC0"/>
<rect x="347" y="244" width="18" height="5" fill="#EEECC0"/>
<rect x="347" y="251" width="18" height="5" fill="#EEECC0"/>
<path d="M160 63.5L168.5 55.5L177 63.5V167.5H160V63.5Z" fill="#947954"/>
<path d="M168.5 22V60.5" stroke="#947954" stroke-width="3"/>
<path d="M287 70.5L295.5 62.5L304 70.5V174.5H287V70.5Z" fill="#D59E9E"/>
<path d="M295.5 29V67.5" stroke="#D59E9E" stroke-width="3"/>
<path d="M427 93V93C436.873 71.2879 467.809 71.4351 478 93V93V106H427V93Z" fill="#F1D4AE"/>
<rect x="401" y="169" width="103" height="93" fill="#F1D4AE"/>
<rect x="410" y="125" width="84" height="44" fill="#F1D4AE"/>
<rect x="419" y="105" width="66" height="46" fill="#F1D4AE"/>
<rect x="567" width="89" height="262" fill="#C47F69"/>
<rect x="574" y="8" width="5" height="254" fill="#EEECC0"/>
<rect x="581" y="8" width="5" height="254" fill="#EEECC0"/>
<rect x="588" y="8" width="5" height="254" fill="#EEECC0"/>
<rect x="595" y="8" width="5" height="254" fill="#EEECC0"/>
<rect x="602" y="8" width="5" height="254" fill="#EEECC0"/>
<rect x="609" y="8" width="5" height="254" fill="#EEECC0"/>
<rect x="616" y="8" width="5" height="254" fill="#EEECC0"/>
<rect x="623" y="8" width="5" height="254" fill="#EEECC0"/>
<rect x="630" y="8" width="5" height="254" fill="#EEECC0"/>
<rect x="637" y="8" width="5" height="254" fill="#EEECC0"/>
<rect x="644" y="8" width="5" height="254" fill="#EEECC0"/>
<rect x="647" y="122" width="89" height="140" fill="#9AB2AB"/>
<rect x="695" y="162" width="89" height="100" fill="#9AB2AB"/>
<rect x="652" y="130" width="82" height="4.84848" fill="#F5F5F5" fill-opacity="0.8"/>
<rect x="652" y="139.697" width="82" height="4.84848" fill="#F5F5F5" fill-opacity="0.8"/>
<rect x="652" y="150.364" width="82" height="4.84848" fill="#F5F5F5" fill-opacity="0.8"/>
<rect x="652" y="160.061" width="82" height="4.84848" fill="#F5F5F5" fill-opacity="0.8"/>
<rect x="652" y="170.727" width="82" height="4.84848" fill="#F5F5F5" fill-opacity="0.8"/>
<rect x="652" y="181.394" width="82" height="4.84848" fill="#F5F5F5" fill-opacity="0.8"/>
<rect x="652" y="191.091" width="82" height="4.84848" fill="#F5F5F5" fill-opacity="0.8"/>
<rect x="652" y="201.758" width="82" height="4.84848" fill="#F5F5F5" fill-opacity="0.8"/>
<rect x="652" y="211.455" width="82" height="4.84848" fill="#F5F5F5" fill-opacity="0.8"/>
<rect x="652" y="222.121" width="82" height="4.84848" fill="#F5F5F5" fill-opacity="0.8"/>
<rect x="652" y="232.788" width="82" height="4.84848" fill="#F5F5F5" fill-opacity="0.8"/>
<rect x="652" y="242.485" width="82" height="4.84848" fill="#F5F5F5" fill-opacity="0.8"/>
<rect x="652" y="253.152" width="82" height="4.84848" fill="#F5F5F5" fill-opacity="0.8"/>
<rect x="738" y="252.182" width="42" height="4.84848" fill="#F5F5F5" fill-opacity="0.8"/>
<rect x="738" y="242.485" width="42" height="4.84848" fill="#F5F5F5" fill-opacity="0.8"/>
<rect x="738" y="230.848" width="42" height="4.84848" fill="#F5F5F5" fill-opacity="0.8"/>
<rect x="738" y="221.152" width="42" height="4.84848" fill="#F5F5F5" fill-opacity="0.8"/>
<rect x="738" y="211.455" width="42" height="4.84848" fill="#F5F5F5" fill-opacity="0.8"/>
<rect x="738" y="201.758" width="42" height="4.84848" fill="#F5F5F5" fill-opacity="0.8"/>
<rect x="738" y="190.121" width="42" height="4.84848" fill="#F5F5F5" fill-opacity="0.8"/>
<rect x="738" y="180.424" width="42" height="4.84848" fill="#F5F5F5" fill-opacity="0.8"/>
<rect x="738" y="168.788" width="42" height="4.84848" fill="#F5F5F5" fill-opacity="0.8"/>
<rect x="825" y="145" width="118" height="117" fill="#597E96"/>
<path d="M714 101.5V57.1387M714 57.1387V30H696.649L671 98.8905L686.088 101.5L698.974 67.0547M714 57.1387H702.684L698.974 67.0547M698.974 67.0547L696.649 105.5" stroke="#F1D4AE" stroke-width="2"/>
<path d="M686.124 100.978L675.347 88.4525M675.347 88.4525L671.754 97.8467L689.716 91.5839L675.347 88.4525ZM675.347 88.4525L692.59 83.2336M678.22 80.1022L689.716 91.062L692.59 83.2336M678.22 80.1022L692.59 83.2336M678.22 80.1022L695.464 75.4051M692.59 83.2336L681.094 72.7956M681.094 72.7956L695.464 75.4051M681.094 72.7956L683.968 64.4452M681.094 72.7956L697.619 67.5766M695.464 75.4051L683.968 64.4452M683.968 64.4452L697.619 67.5766M683.968 64.4452L700.493 60.2701M697.619 67.5766L686.842 57.6606L700.493 60.2701M700.493 60.2701L701.93 56.6168L688.279 54.0073" stroke="#F1D4AE" stroke-width="0.5"/>
<path d="M704.656 31.5112L697.63 55.1593" stroke="#F1D4AE" stroke-width="15.5"/>
<path d="M707 56C707.633 39.5333 707.931 31.8056 708 30" stroke="#F1D4AE" stroke-width="13"/>
<path d="M691.052 49.2767C691.041 49.6806 690.99 50.1014 690.916 50.4991C690.863 50.787 690.686 51.0589 690.686 51.3547" stroke="#F1D4AE" stroke-width="3" stroke-linecap="round"/>
<path d="M690.686 50.1323C690.728 49.275 691.354 48.4381 691.697 47.6808C691.988 47.0398 692.245 46.3912 692.519 45.7454C692.8 45.0833 693.005 44.4209 693.327 43.776C693.706 43.018 694.103 42.2577 694.475 41.5146" stroke="#F1D4AE" stroke-width="3" stroke-linecap="round"/>
<path d="M691.499 53.9033C691.13 53.8828 690.957 53.5475 690.659 53.3982C690.381 53.2595 690.355 52.9811 690.165 52.7669C690.098 52.692 689.895 52.1206 689.868 52.1356C689.663 52.251 689.583 53.0749 689.525 53.3351C689.502 53.4412 689.473 53.5732 689.473 53.681C689.473 53.7537 689.183 53.6563 689.256 53.6563C689.513 53.6563 689.715 53.8045 689.942 53.8045C690.01 53.8045 690.223 53.8281 690.264 53.8786C690.278 53.8966 689.769 53.9033 689.673 53.9033C689.327 53.9033 689.028 53.9323 689.028 53.5574" stroke="#F1D4AE" stroke-linecap="round"/>
<path d="M690.758 54.1504C691.083 54.1504 691.325 54.348 691.633 54.348C692.004 54.348 692.404 54.3056 692.772 54.359C692.968 54.3874 693.125 54.4468 693.327 54.4468C693.889 54.4468 694.525 54.4288 695.081 54.5237C695.318 54.5641 695.557 54.6939 695.797 54.6939C696.078 54.6939 696.409 54.7673 696.676 54.8531C696.949 54.9408 697.262 54.8809 697.549 54.8942C697.798 54.9058 698.014 55.0397 698.257 55.0397C698.555 55.0397 698.745 55.0597 699.009 55.188C699.144 55.2536 699.342 55.3304 699.492 55.3362C699.726 55.3452 699.783 55.5338 700.022 55.5338C700.199 55.5338 700.389 55.5075 700.541 55.5832" stroke="#F1D4AE" stroke-linecap="round"/>
<path d="M693.426 53.8539C693.007 53.8539 692.622 53.8867 692.24 53.7166C692.067 53.6398 691.825 53.6977 691.746 53.4586" stroke="white" stroke-linecap="round"/>
<path d="M691.696 51.1364C691.71 51.2737 691.795 51.4105 691.845 51.5371C691.968 51.8543 692.006 52.2034 692.067 52.5363C692.09 52.6618 692.141 52.9277 692.229 53.0249C692.285 53.0872 692.514 53.2207 692.534 53.2884C692.598 53.5137 692.363 53.6058 692.19 53.6453C691.938 53.7031 691.479 53.745 691.609 53.3708C691.702 53.1 691.925 52.9645 692.19 52.9645" stroke="#F1D4AE" stroke-linecap="round"/>
<path d="M692.586 53.8045C692.926 53.8045 693.227 53.9033 693.574 53.9033C694.069 53.9033 693.906 53.2116 693.45 53.2116C693.301 53.2116 693.073 53.1674 692.956 53.261C692.874 53.327 692.894 53.6266 692.833 53.7331C692.674 54.0114 692.337 54.1009 692.042 54.1009" stroke="#F1D4AE" stroke-linecap="round"/>
<path d="M700.44 55.9373C700.343 55.9373 700.246 55.9373 700.149 55.9373C700.023 55.9373 699.908 55.8605 699.793 55.811C699.742 55.7888 699.681 55.7792 699.634 55.7478C699.593 55.7205 699.59 55.7138 699.535 55.7022C699.378 55.6694 699.242 55.5712 699.089 55.5331C698.959 55.5007 698.822 55.439 698.693 55.3949C698.416 55.3006 698.135 55.2217 697.856 55.1289C697.827 55.1193 697.817 55.0909 697.794 55.0812C697.738 55.057 697.633 55.0784 697.573 55.0784C697.478 55.0784 697.36 55.0905 697.27 55.0503C697.221 55.029 697.156 55.034 697.104 55.0279C697.016 55.0175 696.93 54.9998 696.843 54.9872C696.763 54.9755 696.68 54.9647 696.599 54.9647C696.474 54.9647 696.359 54.9539 696.235 54.9401C696.204 54.9367 696.152 54.9444 696.127 54.9198C696.064 54.8568 696.071 54.7347 696.108 54.6616" stroke="#F1D4AE" stroke-linecap="round"/>
<path d="M695.403 55.0944C695.195 55.0756 694.994 54.9663 694.799 54.8997C694.737 54.8782 694.664 54.8441 694.599 54.8441" stroke="#F1D4AE" stroke-linecap="round"/>
<path d="M693.215 54.5805C693.142 54.4466 692.99 54.3543 692.878 54.2539C692.836 54.2159 692.767 54.169 692.767 54.106" stroke="#F1D4AE" stroke-linecap="round"/>
<path d="M694.914 39.455C694.505 39.455 694.029 39.8677 694.029 40.2766" stroke="#F1D4AE" stroke-linecap="round"/>
<path d="M710.525 56.0138C709.45 56.0138 708.376 55.9506 707.308 55.9506C707.122 55.9506 706.869 55.997 706.697 55.919C706.357 55.7643 705.883 55.9664 705.532 55.8102C705.028 55.5865 704.277 55.7068 703.752 55.6943C703.069 55.678 702.396 55.5849 701.722 55.4801C701.559 55.4547 701.311 55.4006 701.143 55.4485C700.989 55.4924 701.044 55.7711 701.044 55.8874" stroke="#F1D4AE" stroke-linecap="round"/>
<rect x="830.5" y="148.5" width="107" height="110" stroke="white"/>
<line x1="848.5" y1="149.194" x2="848.5" y2="257.806" stroke="white"/>
<line x1="866.5" y1="149.194" x2="866.5" y2="257.806" stroke="white"/>
<line x1="883.5" y1="149.194" x2="883.5" y2="257.806" stroke="white"/>
<line x1="902.5" y1="149.194" x2="902.5" y2="257.806" stroke="white"/>
<line x1="919.5" y1="149.194" x2="919.5" y2="257.806" stroke="white"/>
<line x1="831" y1="159.435" x2="937" y2="159.435" stroke="white"/>
<line x1="830" y1="168.984" x2="936" y2="168.984" stroke="white"/>
<line x1="831" y1="179.726" x2="937" y2="179.726" stroke="white"/>
<line x1="831" y1="189.274" x2="937" y2="189.274" stroke="white"/>
<line x1="831" y1="198.823" x2="937" y2="198.823" stroke="white"/>
<line x1="831" y1="209.565" x2="937" y2="209.565" stroke="white"/>
<line x1="831" y1="219.113" x2="937" y2="219.113" stroke="white"/>
<line x1="831" y1="228.661" x2="937" y2="228.661" stroke="white"/>
<line x1="831" y1="238.21" x2="937" y2="238.21" stroke="white"/>
<line x1="831" y1="248.952" x2="937" y2="248.952" stroke="white"/>
<mask id="path-338-inside-1_101_343" fill="white">
<path d="M400 168H444V262H400V168Z"/>
</mask>
<path d="M400 168V167H399V168H400ZM444 168H445V167H444V168ZM400 169H444V167H400V169ZM443 168V262H445V168H443ZM401 262V168H399V262H401Z" fill="white" mask="url(#path-338-inside-1_101_343)"/>
<line x1="400" y1="187.5" x2="444" y2="187.5" stroke="white"/>
<line x1="400" y1="206.5" x2="444" y2="206.5" stroke="white"/>
<line x1="400" y1="224.5" x2="444" y2="224.5" stroke="white"/>
<line x1="400" y1="243.5" x2="444" y2="243.5" stroke="white"/>
<line x1="410.5" y1="168" x2="410.5" y2="262" stroke="white"/>
<line x1="419.5" y1="168" x2="419.5" y2="262" stroke="white"/>
<line x1="428.5" y1="105" x2="428.5" y2="262" stroke="white"/>
<line x1="438.5" y1="125" x2="438.5" y2="262" stroke="white"/>
<mask id="path-348-inside-2_101_343" fill="white">
<path d="M410 124H439V216H410V124Z"/>
</mask>
<path d="M410 124V123H409V124H410ZM439 124H440V123H439V124ZM410 125H439V123H410V125ZM438 124V216H440V124H438ZM411 216V124H409V216H411Z" fill="white" mask="url(#path-348-inside-2_101_343)"/>
<mask id="path-350-inside-3_101_343" fill="white">
<path d="M419 104H439V168H419V104Z"/>
</mask>
<path d="M419 104V103H418V104H419ZM439 104H440V103H439V104ZM419 105H439V103H419V105ZM438 104V168H440V104H438ZM420 168V104H418V168H420Z" fill="white" mask="url(#path-350-inside-3_101_343)"/>
<line x1="410" y1="136.5" x2="438" y2="136.5" stroke="white"/>
<line x1="410" y1="155.5" x2="438" y2="155.5" stroke="white"/>
<line x1="429" y1="175.5" x2="444" y2="175.5" stroke="white"/>
<line x1="429" y1="181.5" x2="444" y2="181.5" stroke="white"/>
<line x1="429" y1="193.5" x2="444" y2="193.5" stroke="white"/>
<line x1="429" y1="200.5" x2="444" y2="200.5" stroke="white"/>
<line x1="429" y1="212.5" x2="444" y2="212.5" stroke="white"/>
<line x1="429" y1="218.5" x2="444" y2="218.5" stroke="white"/>
<line x1="429" y1="231.5" x2="444" y2="231.5" stroke="white"/>
<line x1="429" y1="237.5" x2="444" y2="237.5" stroke="white"/>
<line x1="429" y1="250.5" x2="444" y2="250.5" stroke="white"/>
<line x1="429" y1="256.5" x2="444" y2="256.5" stroke="white"/>
<line x1="429" y1="162.5" x2="439" y2="162.5" stroke="white"/>
<line x1="429" y1="149.5" x2="439" y2="149.5" stroke="white"/>
<line x1="428" y1="143.5" x2="439" y2="143.5" stroke="white"/>
<line x1="428" y1="130.5" x2="439" y2="130.5" stroke="white"/>
<line x1="428" y1="117.5" x2="439" y2="117.5" stroke="white"/>
<line x1="420" y1="111.5" x2="439" y2="111.5" stroke="white"/>
<mask id="path-370-inside-4_101_343" fill="white">
<path d="M505 168H461V262H505V168Z"/>
</mask>
<path d="M505 168V167H506V168H505ZM461 168H460V167H461V168ZM505 169H461V167H505V169ZM462 168V262H460V168H462ZM504 262V168H506V262H504Z" fill="white" mask="url(#path-370-inside-4_101_343)"/>
<line y1="-0.5" x2="44" y2="-0.5" transform="matrix(-1 0 0 1 505 188)" stroke="white"/>
<line y1="-0.5" x2="44" y2="-0.5" transform="matrix(-1 0 0 1 505 207)" stroke="white"/>
<line y1="-0.5" x2="44" y2="-0.5" transform="matrix(-1 0 0 1 505 225)" stroke="white"/>
<line y1="-0.5" x2="44" y2="-0.5" transform="matrix(-1 0 0 1 505 244)" stroke="white"/>
<line y1="-0.5" x2="94" y2="-0.5" transform="matrix(0 1 1 0 495 168)" stroke="white"/>
<line y1="-0.5" x2="94" y2="-0.5" transform="matrix(0 1 1 0 486 168)" stroke="white"/>
<line y1="-0.5" x2="157" y2="-0.5" transform="matrix(0 1 1 0 477 105)" stroke="white"/>
<line y1="-0.5" x2="137" y2="-0.5" transform="matrix(0 1 1 0 467 125)" stroke="white"/>
<mask id="path-380-inside-5_101_343" fill="white">
<path d="M495 124H466V216H495V124Z"/>
</mask>
<path d="M495 124V123H496V124H495ZM466 124H465V123H466V124ZM495 125H466V123H495V125ZM467 124V216H465V124H467ZM494 216V124H496V216H494Z" fill="white" mask="url(#path-380-inside-5_101_343)"/>
<mask id="path-382-inside-6_101_343" fill="white">
<path d="M486 104H466V168H486V104Z"/>
</mask>
<path d="M486 104V103H487V104H486ZM466 104H465V103H466V104ZM486 105H466V103H486V105ZM467 104V168H465V104H467ZM485 168V104H487V168H485Z" fill="white" mask="url(#path-382-inside-6_101_343)"/>
<line y1="-0.5" x2="28" y2="-0.5" transform="matrix(-1 0 0 1 495 137)" stroke="white"/>
<line y1="-0.5" x2="28" y2="-0.5" transform="matrix(-1 0 0 1 495 156)" stroke="white"/>
<line y1="-0.5" x2="15" y2="-0.5" transform="matrix(-1 0 0 1 476 176)" stroke="white"/>
<line y1="-0.5" x2="15" y2="-0.5" transform="matrix(-1 0 0 1 476 182)" stroke="white"/>
<line y1="-0.5" x2="15" y2="-0.5" transform="matrix(-1 0 0 1 476 194)" stroke="white"/>
<line y1="-0.5" x2="15" y2="-0.5" transform="matrix(-1 0 0 1 476 201)" stroke="white"/>
<line y1="-0.5" x2="15" y2="-0.5" transform="matrix(-1 0 0 1 476 213)" stroke="white"/>
<line y1="-0.5" x2="15" y2="-0.5" transform="matrix(-1 0 0 1 476 219)" stroke="white"/>
<line y1="-0.5" x2="15" y2="-0.5" transform="matrix(-1 0 0 1 476 232)" stroke="white"/>
<line y1="-0.5" x2="15" y2="-0.5" transform="matrix(-1 0 0 1 476 238)" stroke="white"/>
<line y1="-0.5" x2="15" y2="-0.5" transform="matrix(-1 0 0 1 476 251)" stroke="white"/>
<line y1="-0.5" x2="15" y2="-0.5" transform="matrix(-1 0 0 1 476 257)" stroke="white"/>
<line y1="-0.5" x2="10" y2="-0.5" transform="matrix(-1 0 0 1 476 163)" stroke="white"/>
<line y1="-0.5" x2="10" y2="-0.5" transform="matrix(-1 0 0 1 476 150)" stroke="white"/>
<line y1="-0.5" x2="11" y2="-0.5" transform="matrix(-1 0 0 1 477 144)" stroke="white"/>
<line y1="-0.5" x2="11" y2="-0.5" transform="matrix(-1 0 0 1 477 131)" stroke="white"/>
<line y1="-0.5" x2="11" y2="-0.5" transform="matrix(-1 0 0 1 477 118)" stroke="white"/>
<line y1="-0.5" x2="19" y2="-0.5" transform="matrix(-1 0 0 1 485 112)" stroke="white"/>
<path d="M427.5 93.5L427.87 92.7386C438.033 71.8272 467.984 72.2867 477.5 93.5V93.5" stroke="white"/>
<line x1="438" y1="104.5" x2="467" y2="104.5" stroke="white"/>
<path d="M427.5 104.5V97.5M427.5 97.5H425.5V93.5H479.5V97.5H478.5M427.5 97.5H478.5M478.5 97.5V104.5" stroke="white"/>
<rect x="426" y="94" width="53" height="3" fill="#F1D4AE"/>
<path d="M529.5 195L580.162 230.25H478.838L529.5 195Z" fill="#D59E9E"/>
<rect x="491" y="229" width="74" height="33" fill="#D59E9E"/>
<path d="M471 200.01V200.01C474.725 184.852 496.275 184.852 500 200.01V200.01V262H471V200.01Z" fill="#D59E9E"/>
<path d="M559 141.606V141.606C561.156 124.565 585.844 124.565 588 141.606V141.606V262H559V141.606Z" fill="#D59E9E"/>
<path d="M479 241.778V241.778C482.233 237.412 488.767 237.412 492 241.778V241.778V251H479V241.778Z" fill="white"/>
<path d="M509 247.704V247.704C510.585 243.583 516.415 243.583 518 247.704V247.704V260H509V247.704Z" fill="white"/>
<path d="M523 247.704V247.704C524.585 243.583 530.415 243.583 532 247.704V247.704V260H523V247.704Z" fill="white"/>
<path d="M537 247.704V247.704C538.585 243.583 544.415 243.583 546 247.704V247.704V260H537V247.704Z" fill="white"/>
<path d="M551 247.704V247.704C552.585 243.583 558.415 243.583 560 247.704V247.704V260H551V247.704Z" fill="white"/>
<path d="M567 154.655V154.655C569.605 149.182 577.395 149.182 580 154.655V154.655V169H567V154.655Z" fill="white"/>
<path d="M572 235.266V235.266C572.465 233.114 575.535 233.114 576 235.266V235.266V245H572V235.266Z" fill="white"/>
<path d="M572 209.266V209.266C572.465 207.114 575.535 207.114 576 209.266V209.266V219H572V209.266Z" fill="white"/>
<path d="M572 182.266V182.266C572.465 180.114 575.535 180.114 576 182.266V182.266V192H572V182.266Z" fill="white"/>
<path d="M484 216.266V216.266C484.465 214.114 487.535 214.114 488 216.266V216.266V226H484V216.266Z" fill="white"/>
<path d="M517 216.631V216.631C523.563 208.949 535.437 208.949 542 216.631V216.631V232H517V216.631Z" fill="white"/>
</svg>
