<svg width="843" height="230" viewBox="0 0 843 230" fill="none" xmlns="http://www.w3.org/2000/svg">
<path d="M742.895 91.2173V114.46" stroke="#F85858" stroke-width="0.877089"/>
<path d="M736.755 88.585L766.831 94.7246L791.599 89.8129L810.176 88.585H840.251" stroke="#F85858" stroke-width="2.63127"/>
<path d="M839.813 89.9023V114.461L828.849 89.9023M839.813 89.9023H828.849M839.813 89.9023L828.849 114.461M810.869 89.9023L809.553 89.9941M810.869 89.9023H828.849M810.869 89.9023L828.849 114.461M792.012 91.218L775.785 94.2878M792.012 91.218L775.785 114.461V94.501M792.012 91.218L809.553 114.461M792.012 91.218L808.238 90.0859M792.012 91.218V114.461M775.785 94.2878L767.015 96.4805M775.785 94.2878V94.501M767.015 96.4805L757.117 94.501M767.015 96.4805V114.461M742.851 91.218L756.051 94.2878L757.117 94.501M742.851 91.218L737.194 89.9023V100.427L742.851 91.218ZM742.851 91.218L757.117 114.461V94.501M742.851 114.461L757.117 94.501M792.012 114.461L775.785 94.501M792.012 114.461L808.238 90.0859M809.553 114.461V89.9941M809.553 114.461L828.849 89.9023M809.553 89.9941L808.238 90.0859M828.849 114.461V89.9023" stroke="#F85858" stroke-width="0.877089"/>
<line x1="742.017" y1="116.651" x2="841.129" y2="116.651" stroke="#F85858" stroke-width="5.26254"/>
<path d="M792.889 89.024V51.7477M792.889 51.7477V28.9434H802.975L817.886 86.8313L809.115 89.024L801.623 60.08M792.889 51.7477H799.467L801.623 60.08M801.623 60.08L802.975 89.024" stroke="#F85858" stroke-width="1.75418"/>
<path d="M809.094 88.5882L815.359 78.0631M815.359 78.0631L817.447 85.9569L807.006 80.6944L815.359 78.0631ZM815.359 78.0631L805.335 73.6776M813.688 71.0464L807.006 80.2558L805.335 73.6776M813.688 71.0464L805.335 73.6776M813.688 71.0464L803.665 67.0995M805.335 73.6776L812.018 64.9068M812.018 64.9068L803.665 67.0995M812.018 64.9068L810.347 57.89M812.018 64.9068L802.412 60.5213M803.665 67.0995L810.347 57.89M810.347 57.89L802.412 60.5213M810.347 57.89L800.741 54.3817M802.412 60.5213L808.676 52.189L800.741 54.3817M800.741 54.3817L799.906 51.3119L807.841 49.1191" stroke="#F85858" stroke-width="0.438545"/>
<path d="M798.151 30.2583L803.414 50.4314" stroke="#F85858" stroke-width="8.33235"/>
<path d="M796.836 50.8719C796.836 37.5402 796.836 31.2836 796.836 29.8218" stroke="#F85858" stroke-width="8.33235"/>
<path d="M593.222 94.7251V117.968" stroke="#F85858" stroke-width="0.877089"/>
<path d="M585.018 92.0947L625.204 98.2344L658.298 93.3227L683.118 92.0947H723.304" stroke="#F85858" stroke-width="2.63127"/>
<path d="M722.718 93.4082V117.967L708.069 93.4082M722.718 93.4082H708.069M722.718 93.4082L708.069 117.967M684.045 93.4082L682.287 93.5M684.045 93.4082H708.069M684.045 93.4082L708.069 117.967M658.849 94.7238L637.169 97.7937M658.849 94.7238L637.169 117.967V98.0069M658.849 94.7238L682.287 117.967M658.849 94.7238L680.529 93.5918M658.849 94.7238V117.967M637.169 97.7937L625.45 99.9864M637.169 97.7937V98.0069M625.45 99.9864L612.225 98.0069M625.45 99.9864V117.967M593.164 94.7238L610.801 97.7937L612.225 98.0069M593.164 94.7238L585.605 93.4082V103.933L593.164 94.7238ZM593.164 94.7238L612.225 117.967V98.0069M593.164 117.967L612.225 98.0069M658.849 117.967L637.169 98.0069M658.849 117.967L680.529 93.5918M682.287 117.967V93.5M682.287 117.967L708.069 93.4082M682.287 93.5L680.529 93.5918M708.069 117.967V93.4082" stroke="#F85858" stroke-width="0.877089"/>
<line x1="592.05" y1="120.16" x2="724.476" y2="120.16" stroke="#F85858" stroke-width="5.26254"/>
<rect x="685.884" y="115.774" width="58.765" height="114.899" rx="0.877089" fill="#F3AEF7"/>
<path d="M695.532 66.2195L715.266 35.96L736.755 66.2195V104.811H695.532V66.2195Z" fill="#F3AEF7"/>
<path d="M715.267 72.7988L744.511 116.215H686.023L715.267 72.7988Z" fill="#F3AEF7"/>
<rect x="312.244" y="0.878906" width="63.1504" height="228.92" fill="#FDCF50"/>
<rect x="335.925" y="52.625" width="16.6647" height="3.50836" fill="white"/>
<rect x="335.925" y="59.6421" width="16.6647" height="3.50836" fill="white"/>
<rect x="335.925" y="66.6587" width="16.6647" height="3.50836" fill="white"/>
<rect x="335.925" y="73.6758" width="16.6647" height="3.50836" fill="white"/>
<rect x="335.925" y="80.6934" width="16.6647" height="3.50836" fill="white"/>
<rect x="335.925" y="87.7085" width="16.6647" height="3.50836" fill="white"/>
<rect x="335.925" y="94.7251" width="16.6647" height="3.50836" fill="white"/>
<rect x="335.925" y="101.742" width="16.6647" height="3.50836" fill="white"/>
<rect x="335.925" y="108.758" width="16.6647" height="3.50836" fill="white"/>
<rect x="335.925" y="115.774" width="16.6647" height="3.50836" fill="white"/>
<rect x="335.925" y="122.792" width="16.6647" height="3.50836" fill="white"/>
<rect x="335.925" y="129.809" width="16.6647" height="3.50836" fill="white"/>
<rect x="335.925" y="136.826" width="16.6647" height="3.50836" fill="white"/>
<rect x="335.925" y="143.842" width="16.6647" height="3.50836" fill="white"/>
<rect x="335.925" y="150.86" width="16.6647" height="3.50836" fill="white"/>
<rect x="335.925" y="157.876" width="16.6647" height="3.50836" fill="white"/>
<rect x="335.925" y="164.892" width="16.6647" height="3.50836" fill="white"/>
<rect x="335.925" y="171.911" width="16.6647" height="3.50836" fill="white"/>
<rect x="335.925" y="178.928" width="16.6647" height="3.50836" fill="white"/>
<rect x="335.925" y="185.941" width="16.6647" height="3.50836" fill="white"/>
<rect x="335.925" y="192.961" width="16.6647" height="3.50836" fill="white"/>
<rect x="335.925" y="199.975" width="16.6647" height="3.50836" fill="white"/>
<rect x="335.925" y="206.992" width="16.6647" height="3.50836" fill="white"/>
<rect x="335.925" y="214.009" width="16.6647" height="3.50836" fill="white"/>
<rect x="314.875" y="31.5757" width="16.6647" height="3.50836" fill="white"/>
<rect x="314.875" y="38.5913" width="16.6647" height="3.50836" fill="white"/>
<rect x="314.875" y="45.6079" width="16.6647" height="3.50836" fill="white"/>
<rect x="314.875" y="52.625" width="16.6647" height="3.50836" fill="white"/>
<rect x="314.875" y="59.6421" width="16.6647" height="3.50836" fill="white"/>
<rect x="314.875" y="66.6587" width="16.6647" height="3.50836" fill="white"/>
<rect x="314.875" y="73.6758" width="16.6647" height="3.50836" fill="white"/>
<rect x="314.875" y="80.6934" width="16.6647" height="3.50836" fill="white"/>
<rect x="314.875" y="87.7085" width="16.6647" height="3.50836" fill="white"/>
<rect x="314.875" y="94.7251" width="16.6647" height="3.50836" fill="white"/>
<rect x="314.875" y="101.742" width="16.6647" height="3.50836" fill="white"/>
<rect x="314.875" y="108.758" width="16.6647" height="3.50836" fill="white"/>
<rect x="314.875" y="115.774" width="16.6647" height="3.50836" fill="white"/>
<rect x="314.875" y="122.792" width="16.6647" height="3.50836" fill="white"/>
<rect x="314.875" y="129.809" width="16.6647" height="3.50836" fill="white"/>
<rect x="314.875" y="136.826" width="16.6647" height="3.50836" fill="white"/>
<rect x="314.875" y="143.842" width="16.6647" height="3.50836" fill="white"/>
<rect x="314.875" y="150.86" width="16.6647" height="3.50836" fill="white"/>
<rect x="314.875" y="157.876" width="16.6647" height="3.50836" fill="white"/>
<rect x="314.875" y="164.892" width="16.6647" height="3.50836" fill="white"/>
<rect x="314.875" y="171.911" width="16.6647" height="3.50836" fill="white"/>
<rect x="314.875" y="178.928" width="16.6647" height="3.50836" fill="white"/>
<rect x="314.875" y="185.941" width="16.6647" height="3.50836" fill="white"/>
<rect x="314.875" y="192.961" width="16.6647" height="3.50836" fill="white"/>
<rect x="314.875" y="199.975" width="16.6647" height="3.50836" fill="white"/>
<rect x="314.875" y="206.992" width="16.6647" height="3.50836" fill="white"/>
<rect x="314.875" y="214.009" width="16.6647" height="3.50836" fill="white"/>
<rect x="314.875" y="221.026" width="16.6647" height="3.50836" fill="white"/>
<rect x="356.975" y="73.6758" width="16.6647" height="3.50836" fill="white"/>
<rect x="356.975" y="80.6934" width="16.6647" height="3.50836" fill="white"/>
<rect x="356.975" y="87.7085" width="16.6647" height="3.50836" fill="white"/>
<rect x="356.975" y="94.7251" width="16.6647" height="3.50836" fill="white"/>
<rect x="356.975" y="101.742" width="16.6647" height="3.50836" fill="white"/>
<rect x="356.975" y="108.758" width="16.6647" height="3.50836" fill="white"/>
<rect x="356.975" y="115.774" width="16.6647" height="3.50836" fill="white"/>
<rect x="356.975" y="122.792" width="16.6647" height="3.50836" fill="white"/>
<rect x="356.975" y="129.809" width="16.6647" height="3.50836" fill="white"/>
<rect x="356.975" y="136.826" width="16.6647" height="3.50836" fill="white"/>
<rect x="356.975" y="143.842" width="16.6647" height="3.50836" fill="white"/>
<rect x="356.975" y="150.86" width="16.6647" height="3.50836" fill="white"/>
<rect x="356.975" y="157.876" width="16.6647" height="3.50836" fill="white"/>
<rect x="356.975" y="164.892" width="16.6647" height="3.50836" fill="white"/>
<rect x="356.975" y="171.911" width="16.6647" height="3.50836" fill="white"/>
<rect x="356.975" y="178.928" width="16.6647" height="3.50836" fill="white"/>
<rect x="356.975" y="185.941" width="16.6647" height="3.50836" fill="white"/>
<rect x="356.975" y="192.961" width="16.6647" height="3.50836" fill="white"/>
<rect x="356.975" y="199.975" width="16.6647" height="3.50836" fill="white"/>
<rect x="356.975" y="206.992" width="16.6647" height="3.50836" fill="white"/>
<rect x="356.975" y="214.009" width="16.6647" height="3.50836" fill="white"/>
<rect x="356.975" y="221.026" width="16.6647" height="3.50836" fill="white"/>
<rect x="335.925" y="221.026" width="16.6647" height="3.50836" fill="white"/>
<path d="M81.1307 61.3955L98.9809 81.7878H63.2806L81.1307 61.3955Z" fill="#50BBEC"/>
<rect x="70.167" y="81.5684" width="21.9272" height="64.0275" fill="#50BBEC"/>
<rect x="14.0333" y="145.597" width="155.245" height="84.2006" fill="#50BBEC"/>
<path d="M73.6754 205.981V205.981C75.8104 199.083 85.5739 199.083 87.7089 205.981V205.981V229.796H73.6754V205.981Z" fill="#D9D9D9"/>
<rect x="48.2398" y="186.82" width="4.38545" height="8.7709" fill="#D9D9D9"/>
<rect x="55.2563" y="186.82" width="4.38545" height="8.7709" fill="#D9D9D9"/>
<rect x="23.6813" y="186.82" width="4.38545" height="8.7709" fill="#D9D9D9"/>
<rect x="30.6978" y="186.82" width="4.38545" height="8.7709" fill="#D9D9D9"/>
<rect x="23.6813" y="164.892" width="4.38545" height="8.7709" fill="#D9D9D9"/>
<rect x="30.6978" y="164.892" width="4.38545" height="8.7709" fill="#D9D9D9"/>
<rect x="48.2398" y="164.892" width="4.38545" height="8.7709" fill="#D9D9D9"/>
<rect x="55.2563" y="164.892" width="4.38545" height="8.7709" fill="#D9D9D9"/>
<rect x="100.865" y="164.892" width="4.38545" height="8.7709" fill="#D9D9D9"/>
<rect x="107.882" y="164.892" width="4.38545" height="8.7709" fill="#D9D9D9"/>
<rect x="125.424" y="164.892" width="4.38545" height="8.7709" fill="#D9D9D9"/>
<rect x="132.44" y="164.892" width="4.38545" height="8.7709" fill="#D9D9D9"/>
<rect x="100.865" y="186.82" width="4.38545" height="8.7709" fill="#D9D9D9"/>
<rect x="107.882" y="186.82" width="4.38545" height="8.7709" fill="#D9D9D9"/>
<rect x="125.424" y="186.82" width="4.38545" height="8.7709" fill="#D9D9D9"/>
<rect x="132.44" y="186.82" width="4.38545" height="8.7709" fill="#D9D9D9"/>
<rect x="150.859" y="186.82" width="4.38545" height="8.7709" fill="#D9D9D9"/>
<rect x="157.876" y="186.82" width="4.38545" height="8.7709" fill="#D9D9D9"/>
<rect x="150.859" y="164.892" width="4.38545" height="8.7709" fill="#D9D9D9"/>
<rect x="157.876" y="164.892" width="4.38545" height="8.7709" fill="#D9D9D9"/>
<rect x="78.0608" y="163.138" width="6.13963" height="13.1563" fill="#D9D9D9"/>
<rect x="78.0608" y="108.758" width="6.13963" height="13.1563" fill="#D9D9D9"/>
<path d="M78.0608 133.103V133.103C79.2538 130.459 83.0074 130.459 84.2004 133.103V133.103V143.843H78.0608V133.103Z" fill="#D9D9D9"/>
<rect x="169.278" y="106.127" width="91.2173" height="123.67" fill="#AA5DC1"/>
<rect x="178.926" y="94.7251" width="54.3795" height="11.4022" fill="#AA5DC1"/>
<rect x="182.434" y="218.396" width="49.117" height="2.63127" fill="#F5F5F5" fill-opacity="0.8"/>
<rect x="182.434" y="213.132" width="49.117" height="2.63127" fill="#F5F5F5" fill-opacity="0.8"/>
<rect x="182.435" y="207.871" width="49.117" height="2.63127" fill="#F5F5F5" fill-opacity="0.8"/>
<rect x="182.435" y="223.659" width="59.6421" height="2.63127" fill="#F5F5F5" fill-opacity="0.8"/>
<rect x="182.435" y="202.607" width="59.6421" height="2.63127" fill="#F5F5F5" fill-opacity="0.8"/>
<rect x="182.435" y="181.557" width="59.6421" height="2.63127" fill="#F5F5F5" fill-opacity="0.8"/>
<rect x="182.435" y="160.509" width="59.6421" height="2.63127" fill="#F5F5F5" fill-opacity="0.8"/>
<rect x="178.926" y="140.333" width="63.1504" height="2.63127" fill="#F5F5F5" fill-opacity="0.8"/>
<rect x="178.926" y="124.545" width="63.1504" height="2.63127" fill="#F5F5F5" fill-opacity="0.8"/>
<rect x="178.926" y="108.758" width="66.6588" height="2.63127" fill="#F5F5F5" fill-opacity="0.8"/>
<rect x="182.434" y="197.344" width="49.117" height="2.63127" fill="#F5F5F5" fill-opacity="0.8"/>
<rect x="182.434" y="192.083" width="49.117" height="2.63127" fill="#F5F5F5" fill-opacity="0.8"/>
<rect x="182.435" y="186.819" width="49.117" height="2.63127" fill="#F5F5F5" fill-opacity="0.8"/>
<rect x="182.434" y="177.172" width="49.117" height="2.63127" fill="#F5F5F5" fill-opacity="0.8"/>
<rect x="182.434" y="171.911" width="49.117" height="2.63127" fill="#F5F5F5" fill-opacity="0.8"/>
<rect x="182.435" y="166.647" width="49.117" height="2.63127" fill="#F5F5F5" fill-opacity="0.8"/>
<rect x="194.714" y="114.022" width="36.8378" height="2.63127" fill="#F5F5F5" fill-opacity="0.8"/>
<rect x="194.714" y="119.282" width="36.8378" height="2.63127" fill="#F5F5F5" fill-opacity="0.8"/>
<rect x="194.714" y="129.809" width="36.8378" height="2.63127" fill="#F5F5F5" fill-opacity="0.8"/>
<rect x="194.714" y="135.07" width="36.8378" height="2.63127" fill="#F5F5F5" fill-opacity="0.8"/>
<rect x="178.926" y="145.597" width="52.6254" height="2.63127" fill="#F5F5F5" fill-opacity="0.8"/>
<rect x="183.312" y="150.86" width="48.2399" height="2.63127" fill="#F5F5F5" fill-opacity="0.8"/>
<rect x="186.82" y="156.123" width="44.7316" height="2.63127" fill="#F5F5F5" fill-opacity="0.8"/>
<rect x="245.585" y="152.613" width="90.3402" height="77.1839" fill="#738DD8"/>
<rect x="248.216" y="158.752" width="15.7876" height="4.38545" fill="#EEECC0"/>
<rect x="248.216" y="164.015" width="15.7876" height="4.38545" fill="#EEECC0"/>
<rect x="248.216" y="170.155" width="15.7876" height="4.38545" fill="#EEECC0"/>
<rect x="248.216" y="175.418" width="15.7876" height="4.38545" fill="#EEECC0"/>
<rect x="248.216" y="180.678" width="15.7876" height="4.38545" fill="#EEECC0"/>
<rect x="248.216" y="186.82" width="15.7876" height="4.38545" fill="#EEECC0"/>
<rect x="248.216" y="192.083" width="15.7876" height="4.38545" fill="#EEECC0"/>
<rect x="248.216" y="197.345" width="15.7876" height="4.38545" fill="#EEECC0"/>
<rect x="248.216" y="203.485" width="15.7876" height="4.38545" fill="#EEECC0"/>
<rect x="248.216" y="208.748" width="15.7876" height="4.38545" fill="#EEECC0"/>
<rect x="248.216" y="214.009" width="15.7876" height="4.38545" fill="#EEECC0"/>
<rect x="248.216" y="220.148" width="15.7876" height="4.38545" fill="#EEECC0"/>
<rect x="265.758" y="158.752" width="15.7876" height="4.38545" fill="#EEECC0"/>
<rect x="265.758" y="164.015" width="15.7876" height="4.38545" fill="#EEECC0"/>
<rect x="265.758" y="170.155" width="15.7876" height="4.38545" fill="#EEECC0"/>
<rect x="265.758" y="175.418" width="15.7876" height="4.38545" fill="#EEECC0"/>
<rect x="265.758" y="180.678" width="15.7876" height="4.38545" fill="#EEECC0"/>
<rect x="265.758" y="186.82" width="15.7876" height="4.38545" fill="#EEECC0"/>
<rect x="265.758" y="192.083" width="15.7876" height="4.38545" fill="#EEECC0"/>
<rect x="265.758" y="197.345" width="15.7876" height="4.38545" fill="#EEECC0"/>
<rect x="265.758" y="203.485" width="15.7876" height="4.38545" fill="#EEECC0"/>
<rect x="265.758" y="208.748" width="15.7876" height="4.38545" fill="#EEECC0"/>
<rect x="265.758" y="214.009" width="15.7876" height="4.38545" fill="#EEECC0"/>
<rect x="265.758" y="220.148" width="15.7876" height="4.38545" fill="#EEECC0"/>
<rect x="283.3" y="158.752" width="15.7876" height="4.38545" fill="#EEECC0"/>
<rect x="283.3" y="164.015" width="15.7876" height="4.38545" fill="#EEECC0"/>
<rect x="283.3" y="170.155" width="15.7876" height="4.38545" fill="#EEECC0"/>
<rect x="283.3" y="175.418" width="15.7876" height="4.38545" fill="#EEECC0"/>
<rect x="283.3" y="180.678" width="15.7876" height="4.38545" fill="#EEECC0"/>
<rect x="283.3" y="186.82" width="15.7876" height="4.38545" fill="#EEECC0"/>
<rect x="283.3" y="192.083" width="15.7876" height="4.38545" fill="#EEECC0"/>
<rect x="283.3" y="197.345" width="15.7876" height="4.38545" fill="#EEECC0"/>
<rect x="283.3" y="203.485" width="15.7876" height="4.38545" fill="#EEECC0"/>
<rect x="283.3" y="208.748" width="15.7876" height="4.38545" fill="#EEECC0"/>
<rect x="283.3" y="214.009" width="15.7876" height="4.38545" fill="#EEECC0"/>
<rect x="283.3" y="220.148" width="15.7876" height="4.38545" fill="#EEECC0"/>
<rect x="300.842" y="158.752" width="15.7876" height="4.38545" fill="#EEECC0"/>
<rect x="300.842" y="164.015" width="15.7876" height="4.38545" fill="#EEECC0"/>
<rect x="300.842" y="170.155" width="15.7876" height="4.38545" fill="#EEECC0"/>
<rect x="300.842" y="175.418" width="15.7876" height="4.38545" fill="#EEECC0"/>
<rect x="300.842" y="180.678" width="15.7876" height="4.38545" fill="#EEECC0"/>
<rect x="300.842" y="186.82" width="15.7876" height="4.38545" fill="#EEECC0"/>
<rect x="300.842" y="192.083" width="15.7876" height="4.38545" fill="#EEECC0"/>
<rect x="300.842" y="197.345" width="15.7876" height="4.38545" fill="#EEECC0"/>
<rect x="300.842" y="203.485" width="15.7876" height="4.38545" fill="#EEECC0"/>
<rect x="300.842" y="208.748" width="15.7876" height="4.38545" fill="#EEECC0"/>
<rect x="300.842" y="214.009" width="15.7876" height="4.38545" fill="#EEECC0"/>
<rect x="300.842" y="220.148" width="15.7876" height="4.38545" fill="#EEECC0"/>
<rect x="318.383" y="158.752" width="15.7876" height="4.38545" fill="#EEECC0"/>
<rect x="318.383" y="164.015" width="15.7876" height="4.38545" fill="#EEECC0"/>
<rect x="318.383" y="170.155" width="15.7876" height="4.38545" fill="#EEECC0"/>
<rect x="318.383" y="175.418" width="15.7876" height="4.38545" fill="#EEECC0"/>
<rect x="318.383" y="180.678" width="15.7876" height="4.38545" fill="#EEECC0"/>
<rect x="318.383" y="186.82" width="15.7876" height="4.38545" fill="#EEECC0"/>
<rect x="318.383" y="192.083" width="15.7876" height="4.38545" fill="#EEECC0"/>
<rect x="318.383" y="197.345" width="15.7876" height="4.38545" fill="#EEECC0"/>
<rect x="318.383" y="203.485" width="15.7876" height="4.38545" fill="#EEECC0"/>
<rect x="318.383" y="208.748" width="15.7876" height="4.38545" fill="#EEECC0"/>
<rect x="318.383" y="214.009" width="15.7876" height="4.38545" fill="#EEECC0"/>
<rect x="318.383" y="220.148" width="15.7876" height="4.38545" fill="#EEECC0"/>
<path d="M154.368 55.6954L161.823 48.6787L169.278 55.6954V146.913H154.368V55.6954Z" fill="#947954"/>
<path d="M161.823 19.2974V53.0653" stroke="#947954" stroke-width="2.63127"/>
<path d="M265.758 61.8336L273.213 54.8169L280.669 61.8336V153.051H265.758V61.8336Z" fill="#D59E9E"/>
<path d="M273.213 25.4355V59.2035" stroke="#D59E9E" stroke-width="2.63127"/>
<path d="M388.551 81.5676V81.5676C397.21 62.5241 424.344 62.6533 433.282 81.5676V81.5676V92.9697H388.551V81.5676Z" fill="#CA368F"/>
<rect x="365.746" y="148.229" width="90.3402" height="81.5693" fill="#CA368F"/>
<rect x="373.64" y="109.636" width="73.6755" height="38.5919" fill="#CA368F"/>
<rect x="381.534" y="92.0947" width="57.8879" height="40.3461" fill="#CA368F"/>
<rect x="511.343" y="0.878906" width="78.061" height="229.797" fill="#D660A7"/>
<rect x="517.483" y="7.89258" width="4.38545" height="222.781" fill="#EEECC0"/>
<rect x="523.622" y="7.89258" width="4.38545" height="222.781" fill="#EEECC0"/>
<rect x="529.762" y="7.89258" width="4.38545" height="222.781" fill="#EEECC0"/>
<rect x="535.901" y="7.89258" width="4.38545" height="222.781" fill="#EEECC0"/>
<rect x="542.041" y="7.89258" width="4.38545" height="222.781" fill="#EEECC0"/>
<rect x="548.181" y="7.89258" width="4.38545" height="222.781" fill="#EEECC0"/>
<rect x="554.32" y="7.89258" width="4.38545" height="222.781" fill="#EEECC0"/>
<rect x="560.46" y="7.89258" width="4.38545" height="222.781" fill="#EEECC0"/>
<rect x="566.599" y="7.89258" width="4.38545" height="222.781" fill="#EEECC0"/>
<rect x="572.739" y="7.89258" width="4.38545" height="222.781" fill="#EEECC0"/>
<rect x="578.879" y="7.89258" width="4.38545" height="222.781" fill="#EEECC0"/>
<rect x="581.51" y="107.882" width="78.061" height="122.793" fill="#82E3FF"/>
<rect x="623.61" y="142.966" width="78.061" height="87.7089" fill="#82E3FF"/>
<rect x="585.896" y="114.899" width="71.9213" height="4.25255" fill="#F5F5F5" fill-opacity="0.8"/>
<rect x="585.896" y="123.401" width="71.9213" height="4.25255" fill="#F5F5F5" fill-opacity="0.8"/>
<rect x="585.896" y="132.759" width="71.9213" height="4.25255" fill="#F5F5F5" fill-opacity="0.8"/>
<rect x="585.896" y="141.263" width="71.9213" height="4.25255" fill="#F5F5F5" fill-opacity="0.8"/>
<rect x="585.896" y="150.62" width="71.9213" height="4.25255" fill="#F5F5F5" fill-opacity="0.8"/>
<rect x="585.896" y="159.975" width="71.9213" height="4.25255" fill="#F5F5F5" fill-opacity="0.8"/>
<rect x="585.896" y="168.481" width="71.9213" height="4.25255" fill="#F5F5F5" fill-opacity="0.8"/>
<rect x="585.896" y="177.836" width="71.9213" height="4.25255" fill="#F5F5F5" fill-opacity="0.8"/>
<rect x="585.896" y="186.34" width="71.9213" height="4.25255" fill="#F5F5F5" fill-opacity="0.8"/>
<rect x="585.896" y="195.699" width="71.9213" height="4.25255" fill="#F5F5F5" fill-opacity="0.8"/>
<rect x="585.896" y="205.053" width="71.9213" height="4.25255" fill="#F5F5F5" fill-opacity="0.8"/>
<rect x="585.896" y="213.557" width="71.9213" height="4.25255" fill="#F5F5F5" fill-opacity="0.8"/>
<rect x="585.896" y="222.914" width="71.9213" height="4.25255" fill="#F5F5F5" fill-opacity="0.8"/>
<rect x="661.325" y="222.062" width="36.8378" height="4.25255" fill="#F5F5F5" fill-opacity="0.8"/>
<rect x="661.325" y="213.558" width="36.8378" height="4.25255" fill="#F5F5F5" fill-opacity="0.8"/>
<rect x="661.325" y="203.353" width="36.8378" height="4.25255" fill="#F5F5F5" fill-opacity="0.8"/>
<rect x="661.325" y="194.846" width="36.8378" height="4.25255" fill="#F5F5F5" fill-opacity="0.8"/>
<rect x="661.325" y="186.34" width="36.8378" height="4.25255" fill="#F5F5F5" fill-opacity="0.8"/>
<rect x="661.325" y="177.836" width="36.8378" height="4.25255" fill="#F5F5F5" fill-opacity="0.8"/>
<rect x="661.325" y="167.629" width="36.8378" height="4.25255" fill="#F5F5F5" fill-opacity="0.8"/>
<rect x="661.325" y="159.125" width="36.8378" height="4.25255" fill="#F5F5F5" fill-opacity="0.8"/>
<rect x="661.325" y="148.917" width="36.8378" height="4.25255" fill="#F5F5F5" fill-opacity="0.8"/>
<rect x="737.632" y="142.966" width="103.497" height="87.7089" fill="#80C275"/>
<path d="M639.398 95.1645V56.2557M639.398 56.2557V32.4526H624.18L601.683 92.8758L614.917 95.1645L626.219 64.953M639.398 56.2557H629.473L626.219 64.953M626.219 64.953L624.18 98.6729" stroke="#F85858" stroke-width="1.75418"/>
<path d="M614.948 94.7064L605.496 83.7204M605.496 83.7204L602.345 91.9599L618.099 86.4669L605.496 83.7204ZM605.496 83.7204L620.619 79.1428M608.016 76.3963L618.099 86.0091L620.619 79.1428M608.016 76.3963L620.619 79.1428M608.016 76.3963L623.14 72.2766M620.619 79.1428L610.537 69.9878M610.537 69.9878L623.14 72.2766M610.537 69.9878L613.058 62.6638M610.537 69.9878L625.031 65.4103M623.14 72.2766L613.058 62.6638M613.058 62.6638L625.031 65.4103M613.058 62.6638L627.551 59.0018M625.031 65.4103L615.578 56.713L627.551 59.0018M627.551 59.0018L628.811 55.7975L616.839 53.5088" stroke="#F85858" stroke-width="0.438545"/>
<path d="M631.202 33.7783L625.04 54.5199" stroke="#F85858" stroke-width="13.5949"/>
<path d="M633.259 55.257C633.814 40.8142 634.075 34.0363 634.136 32.4526" stroke="#F85858" stroke-width="11.4022"/>
<path d="M619.271 49.3589C619.261 49.7132 619.216 50.0822 619.152 50.431C619.105 50.6836 618.949 50.9221 618.949 51.1815" stroke="#F1D4AE" stroke-width="2.63127" stroke-linecap="round"/>
<path d="M618.949 50.1113C618.987 49.3593 619.536 48.6253 619.837 47.961C620.091 47.3988 620.317 46.8299 620.557 46.2635C620.804 45.6828 620.983 45.1018 621.266 44.5362C621.599 43.8714 621.947 43.2045 622.273 42.5527" stroke="#F85858" stroke-width="2.63127" stroke-linecap="round"/>
<path d="M619.662 53.4169C619.339 53.399 619.188 53.1049 618.926 52.9739C618.682 52.8522 618.659 52.6081 618.492 52.4202C618.434 52.3545 618.256 51.8534 618.232 51.8665C618.052 51.9677 617.982 52.6903 617.931 52.9186C617.911 53.0116 617.886 53.1274 617.886 53.2219C617.886 53.2857 617.632 53.2003 617.695 53.2003C617.921 53.2003 618.098 53.3303 618.297 53.3303C618.357 53.3303 618.544 53.351 618.579 53.3953C618.592 53.411 618.145 53.4169 618.061 53.4169C617.757 53.4169 617.496 53.4424 617.496 53.1136" stroke="#F85858" stroke-width="0.877089" stroke-linecap="round"/>
<path d="M619.012 53.6338C619.297 53.6338 619.51 53.8071 619.78 53.8071C620.106 53.8071 620.457 53.7699 620.779 53.8168C620.951 53.8417 621.089 53.8938 621.266 53.8938C621.758 53.8938 622.317 53.878 622.804 53.9612C623.012 53.9967 623.222 54.1105 623.433 54.1105C623.679 54.1105 623.969 54.1749 624.203 54.2501C624.442 54.3271 624.718 54.2746 624.969 54.2862C625.187 54.2964 625.377 54.4138 625.59 54.4138C625.852 54.4138 626.018 54.4313 626.249 54.5439C626.368 54.6014 626.541 54.6688 626.673 54.6739C626.878 54.6817 626.929 54.8472 627.138 54.8472C627.293 54.8472 627.46 54.8241 627.593 54.8905" stroke="#F85858" stroke-width="0.877089" stroke-linecap="round"/>
<path d="M621.352 53.3745C620.985 53.3745 620.648 53.4033 620.312 53.2541C620.161 53.1867 619.949 53.2375 619.879 53.0278" stroke="white" stroke-width="0.877089" stroke-linecap="round"/>
<path d="M619.836 50.9912C619.848 51.1116 619.923 51.2317 619.966 51.3427C620.074 51.6209 620.107 51.9271 620.161 52.2191C620.181 52.3292 620.226 52.5624 620.303 52.6476C620.352 52.7022 620.553 52.8193 620.57 52.8787C620.627 53.0764 620.42 53.1571 620.269 53.1917C620.047 53.2424 619.645 53.2792 619.759 52.951C619.841 52.7135 620.036 52.5947 620.269 52.5947" stroke="#F85858" stroke-width="0.877089" stroke-linecap="round"/>
<path d="M620.616 53.3304C620.915 53.3304 621.178 53.4171 621.483 53.4171C621.917 53.4171 621.774 52.8104 621.374 52.8104C621.243 52.8104 621.044 52.7717 620.941 52.8537C620.869 52.9117 620.886 53.1744 620.833 53.2678C620.693 53.512 620.398 53.5905 620.139 53.5905" stroke="#F85858" stroke-width="0.877089" stroke-linecap="round"/>
<path d="M627.505 55.2029C627.42 55.2029 627.335 55.2029 627.25 55.2029C627.139 55.2029 627.038 55.1356 626.937 55.0921C626.892 55.0726 626.84 55.0643 626.798 55.0367C626.762 55.0128 626.759 55.0069 626.711 54.9967C626.573 54.968 626.454 54.8818 626.32 54.8484C626.206 54.82 626.086 54.7659 625.972 54.7272C625.729 54.6445 625.483 54.5753 625.239 54.4939C625.213 54.4855 625.204 54.4605 625.185 54.452C625.135 54.4309 625.043 54.4496 624.99 54.4496C624.907 54.4496 624.803 54.4602 624.724 54.425C624.682 54.4062 624.624 54.4106 624.579 54.4053C624.502 54.3962 624.427 54.3807 624.35 54.3696C624.279 54.3593 624.207 54.3499 624.136 54.3499C624.026 54.3499 623.925 54.3404 623.817 54.3283C623.789 54.3253 623.744 54.3321 623.722 54.3105C623.667 54.2552 623.673 54.1481 623.705 54.084" stroke="#F85858" stroke-width="0.877089" stroke-linecap="round"/>
<path d="M623.087 54.4613C622.905 54.4448 622.728 54.3489 622.557 54.2905C622.502 54.2717 622.439 54.2417 622.381 54.2417" stroke="#F1D4AE" stroke-width="0.877089" stroke-linecap="round"/>
<path d="M621.169 54.0123C621.105 53.8945 620.971 53.8132 620.873 53.7249C620.836 53.6914 620.775 53.6501 620.775 53.5947" stroke="#F1D4AE" stroke-width="0.877089" stroke-linecap="round"/>
<path d="M622.658 40.7437C622.299 40.7437 621.882 41.1056 621.882 41.4643" stroke="#F85858" stroke-width="0.877089" stroke-linecap="round"/>
<path d="M636.35 55.268C635.407 55.268 634.466 55.2126 633.529 55.2126C633.366 55.2126 633.144 55.2532 632.993 55.1848C632.695 55.0492 632.279 55.2264 631.971 55.0894C631.529 54.8932 630.87 54.9987 630.409 54.9877C629.811 54.9735 629.22 54.8918 628.629 54.7999C628.486 54.7776 628.268 54.7301 628.121 54.7722C627.986 54.8107 628.035 55.0551 628.035 55.1571" stroke="#F85858" stroke-width="0.877089" stroke-linecap="round"/>
<rect x="742.456" y="146.91" width="93.8486" height="80.6922" stroke="white" stroke-width="0.877089"/>
<line x1="758.244" y1="147.35" x2="758.244" y2="227.165" stroke="white" stroke-width="0.877089"/>
<line x1="774.031" y1="147.35" x2="774.031" y2="227.165" stroke="white" stroke-width="0.877089"/>
<line x1="788.942" y1="147.35" x2="788.942" y2="227.165" stroke="white" stroke-width="0.877089"/>
<line x1="805.606" y1="147.35" x2="805.606" y2="227.165" stroke="white" stroke-width="0.877089"/>
<line x1="820.517" y1="147.35" x2="820.517" y2="227.165" stroke="white" stroke-width="0.877089"/>
<line x1="742.895" y1="154.806" x2="835.866" y2="154.806" stroke="white" stroke-width="0.877089"/>
<line x1="742.018" y1="161.823" x2="834.989" y2="161.823" stroke="white" stroke-width="0.877089"/>
<line x1="742.895" y1="169.717" x2="835.866" y2="169.717" stroke="white" stroke-width="0.877089"/>
<line x1="742.895" y1="176.733" x2="835.866" y2="176.733" stroke="white" stroke-width="0.877089"/>
<line x1="742.895" y1="183.75" x2="835.866" y2="183.75" stroke="white" stroke-width="0.877089"/>
<line x1="742.895" y1="191.644" x2="835.866" y2="191.644" stroke="white" stroke-width="0.877089"/>
<line x1="742.895" y1="198.66" x2="835.866" y2="198.66" stroke="white" stroke-width="0.877089"/>
<line x1="742.895" y1="205.679" x2="835.866" y2="205.679" stroke="white" stroke-width="0.877089"/>
<line x1="742.895" y1="212.694" x2="835.866" y2="212.694" stroke="white" stroke-width="0.877089"/>
<line x1="742.895" y1="220.588" x2="835.866" y2="220.588" stroke="white" stroke-width="0.877089"/>
<mask id="path-282-inside-1_118_1604" fill="white">
<path d="M364.869 147.35H403.461V229.797H364.869V147.35Z"/>
</mask>
<path d="M364.869 147.35V146.473H363.992V147.35H364.869ZM403.461 147.35H404.338V146.473H403.461V147.35ZM364.869 148.227H403.461V146.473H364.869V148.227ZM402.584 147.35V229.797H404.338V147.35H402.584ZM365.746 229.797V147.35H363.992V229.797H365.746Z" fill="white" mask="url(#path-282-inside-1_118_1604)"/>
<line x1="364.869" y1="164.454" x2="403.461" y2="164.454" stroke="white" stroke-width="0.877089"/>
<line x1="364.869" y1="181.118" x2="403.461" y2="181.118" stroke="white" stroke-width="0.877089"/>
<line x1="364.869" y1="196.906" x2="403.461" y2="196.906" stroke="white" stroke-width="0.877089"/>
<line x1="364.869" y1="213.571" x2="403.461" y2="213.571" stroke="white" stroke-width="0.877089"/>
<line x1="374.079" y1="147.35" x2="374.079" y2="229.797" stroke="white" stroke-width="0.877089"/>
<line x1="381.972" y1="147.35" x2="381.972" y2="229.797" stroke="white" stroke-width="0.877089"/>
<line x1="389.866" y1="92.0947" x2="389.866" y2="229.798" stroke="white" stroke-width="0.877089"/>
<line x1="398.637" y1="109.636" x2="398.637" y2="229.797" stroke="white" stroke-width="0.877089"/>
<mask id="path-292-inside-2_118_1604" fill="white">
<path d="M373.64 108.758H399.076V189.45H373.64V108.758Z"/>
</mask>
<path d="M373.64 108.758V107.881H372.763V108.758H373.64ZM399.076 108.758H399.953V107.881H399.076V108.758ZM373.64 109.635H399.076V107.881H373.64V109.635ZM398.199 108.758V189.45H399.953V108.758H398.199ZM374.517 189.45V108.758H372.763V189.45H374.517Z" fill="white" mask="url(#path-292-inside-2_118_1604)"/>
<mask id="path-294-inside-3_118_1604" fill="white">
<path d="M381.534 91.2173H399.076V147.351H381.534V91.2173Z"/>
</mask>
<path d="M381.534 91.2173V90.3402H380.657V91.2173H381.534ZM399.076 91.2173H399.953V90.3402H399.076V91.2173ZM381.534 92.0944H399.076V90.3402H381.534V92.0944ZM398.199 91.2173V147.351H399.953V91.2173H398.199ZM382.411 147.351V91.2173H380.657V147.351H382.411Z" fill="white" mask="url(#path-294-inside-3_118_1604)"/>
<line x1="373.64" y1="119.722" x2="398.199" y2="119.722" stroke="white" stroke-width="0.877089"/>
<line x1="373.64" y1="136.387" x2="398.199" y2="136.387" stroke="white" stroke-width="0.877089"/>
<line x1="390.305" y1="153.929" x2="403.461" y2="153.929" stroke="white" stroke-width="0.877089"/>
<line x1="390.305" y1="159.192" x2="403.461" y2="159.192" stroke="white" stroke-width="0.877089"/>
<line x1="390.305" y1="169.717" x2="403.461" y2="169.717" stroke="white" stroke-width="0.877089"/>
<line x1="390.305" y1="175.857" x2="403.461" y2="175.857" stroke="white" stroke-width="0.877089"/>
<line x1="390.305" y1="186.381" x2="403.461" y2="186.381" stroke="white" stroke-width="0.877089"/>
<line x1="390.305" y1="191.644" x2="403.461" y2="191.644" stroke="white" stroke-width="0.877089"/>
<line x1="390.305" y1="203.046" x2="403.461" y2="203.046" stroke="white" stroke-width="0.877089"/>
<line x1="390.305" y1="208.309" x2="403.461" y2="208.309" stroke="white" stroke-width="0.877089"/>
<line x1="390.305" y1="219.709" x2="403.461" y2="219.709" stroke="white" stroke-width="0.877089"/>
<line x1="390.305" y1="224.972" x2="403.461" y2="224.972" stroke="white" stroke-width="0.877089"/>
<line x1="390.305" y1="142.527" x2="399.076" y2="142.527" stroke="white" stroke-width="0.877089"/>
<line x1="390.305" y1="131.123" x2="399.076" y2="131.123" stroke="white" stroke-width="0.877089"/>
<line x1="389.428" y1="125.862" x2="399.076" y2="125.862" stroke="white" stroke-width="0.877089"/>
<line x1="389.428" y1="114.461" x2="399.076" y2="114.461" stroke="white" stroke-width="0.877089"/>
<line x1="389.428" y1="103.056" x2="399.076" y2="103.056" stroke="white" stroke-width="0.877089"/>
<line x1="382.411" y1="97.7963" x2="399.076" y2="97.7963" stroke="white" stroke-width="0.877089"/>
<mask id="path-314-inside-4_118_1604" fill="white">
<path d="M456.964 147.35H418.372V229.797H456.964V147.35Z"/>
</mask>
<path d="M456.964 147.35V146.473H457.841V147.35H456.964ZM418.372 147.35H417.495V146.473H418.372V147.35ZM456.964 148.227H418.372V146.473H456.964V148.227ZM419.249 147.35V229.797H417.495V147.35H419.249ZM456.087 229.797V147.35H457.841V229.797H456.087Z" fill="white" mask="url(#path-314-inside-4_118_1604)"/>
<line y1="-0.438545" x2="38.5919" y2="-0.438545" transform="matrix(-1 0 0 1 456.964 164.892)" stroke="white" stroke-width="0.877089"/>
<line y1="-0.438545" x2="38.5919" y2="-0.438545" transform="matrix(-1 0 0 1 456.964 181.556)" stroke="white" stroke-width="0.877089"/>
<line y1="-0.438545" x2="38.5919" y2="-0.438545" transform="matrix(-1 0 0 1 456.964 197.344)" stroke="white" stroke-width="0.877089"/>
<line y1="-0.438545" x2="38.5919" y2="-0.438545" transform="matrix(-1 0 0 1 456.964 214.009)" stroke="white" stroke-width="0.877089"/>
<line y1="-0.438545" x2="82.4464" y2="-0.438545" transform="matrix(0 1 1 0 448.193 147.35)" stroke="white" stroke-width="0.877089"/>
<line y1="-0.438545" x2="82.4464" y2="-0.438545" transform="matrix(0 1 1 0 440.299 147.35)" stroke="white" stroke-width="0.877089"/>
<line y1="-0.438545" x2="137.703" y2="-0.438545" transform="matrix(0 1 1 0 432.405 92.0942)" stroke="white" stroke-width="0.877089"/>
<line y1="-0.438545" x2="120.161" y2="-0.438545" transform="matrix(0 1 1 0 423.634 109.636)" stroke="white" stroke-width="0.877089"/>
<mask id="path-324-inside-5_118_1604" fill="white">
<path d="M448.193 108.757H422.757V189.45H448.193V108.757Z"/>
</mask>
<path d="M448.193 108.757V107.88H449.07V108.757H448.193ZM422.757 108.757H421.88V107.88H422.757V108.757ZM448.193 109.634H422.757V107.88H448.193V109.634ZM423.635 108.757V189.45H421.88V108.757H423.635ZM447.316 189.45V108.757H449.07V189.45H447.316Z" fill="white" mask="url(#path-324-inside-5_118_1604)"/>
<mask id="path-326-inside-6_118_1604" fill="white">
<path d="M440.299 91.2173H422.757V147.351H440.299V91.2173Z"/>
</mask>
<path d="M440.299 91.2173V90.3402H441.176V91.2173H440.299ZM422.757 91.2173H421.88V90.3402H422.757V91.2173ZM440.299 92.0944H422.757V90.3402H440.299V92.0944ZM423.634 91.2173V147.351H421.88V91.2173H423.634ZM439.422 147.351V91.2173H441.176V147.351H439.422Z" fill="white" mask="url(#path-326-inside-6_118_1604)"/>
<line y1="-0.438545" x2="24.5585" y2="-0.438545" transform="matrix(-1 0 0 1 448.193 120.161)" stroke="white" stroke-width="0.877089"/>
<line y1="-0.438545" x2="24.5585" y2="-0.438545" transform="matrix(-1 0 0 1 448.193 136.826)" stroke="white" stroke-width="0.877089"/>
<line y1="-0.438545" x2="13.1563" y2="-0.438545" transform="matrix(-1 0 0 1 431.528 154.367)" stroke="white" stroke-width="0.877089"/>
<line y1="-0.438545" x2="13.1563" y2="-0.438545" transform="matrix(-1 0 0 1 431.528 159.63)" stroke="white" stroke-width="0.877089"/>
<line y1="-0.438545" x2="13.1563" y2="-0.438545" transform="matrix(-1 0 0 1 431.528 170.155)" stroke="white" stroke-width="0.877089"/>
<line y1="-0.438545" x2="13.1563" y2="-0.438545" transform="matrix(-1 0 0 1 431.528 176.295)" stroke="white" stroke-width="0.877089"/>
<line y1="-0.438545" x2="13.1563" y2="-0.438545" transform="matrix(-1 0 0 1 431.528 186.819)" stroke="white" stroke-width="0.877089"/>
<line y1="-0.438545" x2="13.1563" y2="-0.438545" transform="matrix(-1 0 0 1 431.528 192.083)" stroke="white" stroke-width="0.877089"/>
<line y1="-0.438545" x2="13.1563" y2="-0.438545" transform="matrix(-1 0 0 1 431.528 203.484)" stroke="white" stroke-width="0.877089"/>
<line y1="-0.438545" x2="13.1563" y2="-0.438545" transform="matrix(-1 0 0 1 431.528 208.748)" stroke="white" stroke-width="0.877089"/>
<line y1="-0.438545" x2="13.1563" y2="-0.438545" transform="matrix(-1 0 0 1 431.528 220.147)" stroke="white" stroke-width="0.877089"/>
<line y1="-0.438545" x2="13.1563" y2="-0.438545" transform="matrix(-1 0 0 1 431.528 225.411)" stroke="white" stroke-width="0.877089"/>
<line y1="-0.438545" x2="8.7709" y2="-0.438545" transform="matrix(-1 0 0 1 431.528 142.966)" stroke="white" stroke-width="0.877089"/>
<line y1="-0.438545" x2="8.7709" y2="-0.438545" transform="matrix(-1 0 0 1 431.528 131.562)" stroke="white" stroke-width="0.877089"/>
<line y1="-0.438545" x2="9.64798" y2="-0.438545" transform="matrix(-1 0 0 1 432.405 126.301)" stroke="white" stroke-width="0.877089"/>
<line y1="-0.438545" x2="9.64798" y2="-0.438545" transform="matrix(-1 0 0 1 432.405 114.899)" stroke="white" stroke-width="0.877089"/>
<line y1="-0.438545" x2="9.64798" y2="-0.438545" transform="matrix(-1 0 0 1 432.405 103.494)" stroke="white" stroke-width="0.877089"/>
<line y1="-0.438545" x2="16.6647" y2="-0.438545" transform="matrix(-1 0 0 1 439.422 98.2344)" stroke="white" stroke-width="0.877089"/>
<path d="M388.989 82.0058L389.314 81.338C398.227 62.9968 424.497 63.3999 432.844 82.0058V82.0058" stroke="white" stroke-width="0.877089"/>
<line x1="398.198" y1="91.6557" x2="423.634" y2="91.6557" stroke="white" stroke-width="0.877089"/>
<path d="M388.989 91.6548V85.5152M388.989 85.5152H387.235V82.0068H434.598V85.5152H433.721M388.989 85.5152H433.721M433.721 85.5152V91.6548" stroke="white" stroke-width="0.877089"/>
<path d="M478.452 171.032L522.888 201.949H434.017L478.452 171.032Z" fill="#50BBEC"/>
<rect x="444.684" y="200.854" width="64.9046" height="28.944" fill="#50BBEC"/>
<path d="M427.142 175.427V175.427C430.409 162.132 449.311 162.132 452.578 175.427V175.427V229.798H427.142V175.427Z" fill="#50BBEC"/>
<path d="M504.326 124.199V124.199C506.218 109.252 527.871 109.252 529.762 124.199V124.199V229.796H504.326V124.199Z" fill="#50BBEC"/>
<path d="M434.159 212.061V212.061C436.995 208.231 442.725 208.231 445.561 212.061V212.061V220.149H434.159V212.061Z" fill="white"/>
<path d="M460.472 217.258V217.258C461.862 213.643 466.976 213.643 468.366 217.258V217.258V228.042H460.472V217.258Z" fill="white"/>
<path d="M472.751 217.258V217.258C474.141 213.643 479.255 213.643 480.645 217.258V217.258V228.042H472.751V217.258Z" fill="white"/>
<path d="M485.03 217.258V217.258C486.42 213.643 491.534 213.643 492.924 217.258V217.258V228.042H485.03V217.258Z" fill="white"/>
<path d="M497.31 217.258V217.258C498.699 213.643 503.814 213.643 505.203 217.258V217.258V228.042H497.31V217.258Z" fill="white"/>
<path d="M511.343 135.647V135.647C513.628 130.846 520.46 130.846 522.745 135.647V135.647V148.228H511.343V135.647Z" fill="white"/>
<path d="M515.728 206.348V206.348C516.136 204.46 518.829 204.46 519.237 206.348V206.348V214.886H515.728V206.348Z" fill="white"/>
<path d="M515.728 183.545V183.545C516.136 181.657 518.829 181.657 519.237 183.545V183.545V192.083H515.728V183.545Z" fill="white"/>
<path d="M515.728 159.861V159.861C516.136 157.974 518.829 157.974 519.237 159.861V159.861V168.399H515.728V159.861Z" fill="white"/>
<path d="M438.545 189.683V189.683C438.952 187.795 441.645 187.795 442.053 189.683V189.683V198.221H438.545V189.683Z" fill="white"/>
<path d="M467.489 190.004V190.004C473.245 183.267 483.66 183.267 489.416 190.004V190.004V203.485H467.489V190.004Z" fill="white"/>
<path d="M618.5 48H628L629.5 56.5L617 54V50.5L618.5 48Z" fill="#F85858"/>
</svg>
