<svg width="58" height="54" viewBox="0 0 58 54" fill="none" xmlns="http://www.w3.org/2000/svg">
<path d="M28.42 29.7H37.7C38.5217 29.7 39.2109 29.4408 39.7677 28.9224C40.3245 28.404 40.6019 27.7632 40.6 27C40.6 26.235 40.3216 25.5933 39.7648 25.0749C39.208 24.5565 38.5197 24.2982 37.7 24.3H28.42L31.03 21.87C31.5617 21.375 31.8275 20.745 31.8275 19.98C31.8275 19.215 31.5617 18.585 31.03 18.09C30.4983 17.595 29.8217 17.3475 29 17.3475C28.1783 17.3475 27.5017 17.595 26.97 18.09L19.43 25.11C18.85 25.65 18.56 26.28 18.56 27C18.56 27.72 18.85 28.35 19.43 28.89L26.97 35.91C27.5017 36.405 28.1783 36.6525 29 36.6525C29.8217 36.6525 30.4983 36.405 31.03 35.91C31.5617 35.415 31.8275 34.785 31.8275 34.02C31.8275 33.255 31.5617 32.625 31.03 32.13L28.42 29.7ZM29 54C24.9883 54 21.2183 53.2908 17.69 51.8724C14.1617 50.454 11.0925 48.5307 8.4825 46.1025C5.8725 43.6725 3.80673 40.815 2.2852 37.53C0.763667 34.245 0.00193333 30.735 0 27C0 23.265 0.761734 19.755 2.2852 16.47C3.80867 13.185 5.87443 10.3275 8.4825 7.8975C11.0925 5.4675 14.1617 3.5442 17.69 2.1276C21.2183 0.711 24.9883 0.0018 29 0C33.0117 0 36.7817 0.7092 40.31 2.1276C43.8383 3.546 46.9075 5.4693 49.5175 7.8975C52.1275 10.3275 54.1942 13.185 55.7177 16.47C57.2412 19.755 58.0019 23.265 58 27C58 30.735 57.2383 34.245 55.7148 37.53C54.1913 40.815 52.1256 43.6725 49.5175 46.1025C46.9075 48.5325 43.8383 50.4567 40.31 51.8751C36.7817 53.2935 33.0117 54.0018 29 54Z" fill="#6B6262"/>
</svg>
