<svg width="32" height="33" viewBox="0 0 32 33" fill="none" xmlns="http://www.w3.org/2000/svg">
<circle cx="16" cy="16" r="16" fill="#C47F69"/>
<path d="M21.5381 7.15039L20.8271 12.5078C20.5817 12.4401 20.3363 12.3936 20.0908 12.3682C19.8454 12.3428 19.5999 12.3301 19.3545 12.3301C18.7282 12.3301 18.1315 12.4147 17.5645 12.584C16.9974 12.7448 16.4938 12.9945 16.0537 13.333C15.6221 13.6715 15.2751 14.0947 15.0127 14.6025C14.7588 15.1104 14.6318 15.707 14.6318 16.3926C14.6318 16.8327 14.6995 17.2135 14.835 17.5352C14.9788 17.8568 15.1777 18.1234 15.4316 18.335C15.6855 18.5465 15.986 18.7031 16.333 18.8047C16.68 18.9062 17.0609 18.957 17.4756 18.957C17.7887 18.957 18.1146 18.9232 18.4531 18.8555C18.7917 18.7878 19.126 18.6989 19.4561 18.5889C19.7861 18.4788 20.1077 18.3519 20.4209 18.208C20.734 18.0641 21.0218 17.916 21.2842 17.7637L20.7764 23.7305C20.4463 23.8997 20.0866 24.0521 19.6973 24.1875C19.3164 24.3145 18.9229 24.4287 18.5166 24.5303C18.1104 24.6234 17.7041 24.6953 17.2979 24.7461C16.8916 24.7969 16.5023 24.8223 16.1299 24.8223C15.055 24.8223 14.0521 24.6234 13.1211 24.2256C12.1901 23.8278 11.3818 23.2819 10.6963 22.5879C10.0107 21.8939 9.46908 21.0771 9.07129 20.1377C8.68197 19.1898 8.4873 18.1699 8.4873 17.0781C8.4873 15.6309 8.69466 14.2682 9.10938 12.9902C9.52409 11.7038 10.1335 10.5781 10.9375 9.61328C11.7415 8.64844 12.736 7.88672 13.9209 7.32812C15.1143 6.76953 16.4854 6.49023 18.0342 6.49023C18.6182 6.49023 19.2148 6.53678 19.8242 6.62988C20.4421 6.72298 21.0133 6.89648 21.5381 7.15039Z" fill="#F4F4E7"/>
</svg>
